<svg xmlns="http://www.w3.org/2000/svg" viewBox="0 0 409.6 409.6"><defs><style>.cls-1{fill:#ee494a;}.cls-2{fill:#f5f5f5;}</style></defs><title>bitcoin-logo_1</title><g id="Layer_2" data-name="Layer 2"><g id="Layer_1-2" data-name="Layer 1"><path class="cls-1" d="M409.6,204.8c0,113.1-91.7,204.8-204.8,204.8S0,317.91,0,204.8,91.69,0,204.8,0,409.6,91.69,409.6,204.8Zm0,0"/><path class="cls-2" d="M276.71,210.3q-7.51-9.71-22.66-13.33,19.29-9.85,17-33.41a33.11,33.11,0,0,0-4.73-14.82,29.69,29.69,0,0,0-10.69-10.1A59.14,59.14,0,0,0,241,132.81a116.21,116.21,0,0,0-18.14-2.91V97.27H202.9V129q-5.18,0-15.8.25v-32H167.17V129.9q-4.27.13-12.56.13l-27.45-.13v21.23h14.37q9.84,0,11.52,8.81V197.1a12.35,12.35,0,0,1,2.07.13h-2.07v52q-1,6.6-7.51,6.61H131.17l-4,23.69h25.89c1.64,0,4,0,7.12.06s5.44.07,7,.07v33h19.94V280.1q5.44.13,15.79.13v32.5h19.94v-33a157.34,157.34,0,0,0,18.84-1.94,76.94,76.94,0,0,0,15.73-4.47A42.51,42.51,0,0,0,270,265.72a35.75,35.75,0,0,0,8.36-11.52,49,49,0,0,0,4.2-16.19q1.7-18-5.82-27.7Zm-89.22-57.75c.61,0,2.31,0,5.11-.06s5.14-.09,7-.13,4.35.07,7.5.33a71.7,71.7,0,0,1,8,1,44.67,44.67,0,0,1,7.12,2.14,19.25,19.25,0,0,1,6.22,3.62,18,18,0,0,1,3.95,5.44A17,17,0,0,1,234,172.5a18,18,0,0,1-1.16,6.6,12.44,12.44,0,0,1-3.5,5,35.3,35.3,0,0,1-4.79,3.5,22.12,22.12,0,0,1-6.28,2.4c-2.55.6-4.77,1.08-6.67,1.42a54.41,54.41,0,0,1-7.12.71c-2.85.12-5,.22-6.48.26s-3.47,0-6,0l-4.46-.06V152.55Zm54.45,88.18a18.35,18.35,0,0,1-3.17,5.18,17.93,17.93,0,0,1-5.12,3.88,43.57,43.57,0,0,1-6.15,2.72,49.3,49.3,0,0,1-7.18,1.81q-4.21.78-7.39,1.1t-7.57.52c-2.93.12-5.22.19-6.86.19s-3.72,0-6.22-.07l-4.8-.06V212.24c.69,0,2.74,0,6.15-.13s6.19-.12,8.35-.12,5.14.12,8.94.39a75.55,75.55,0,0,1,9.58,1.16,63.3,63.3,0,0,1,8.48,2.4,24.49,24.49,0,0,1,7.45,3.95,19.41,19.41,0,0,1,4.79,6,17.29,17.29,0,0,1,1.95,8.29,17.09,17.09,0,0,1-1.23,6.61Zm0,0"/></g></g></svg>
