<?xml version="1.0"?>
<svg xmlns="http://www.w3.org/2000/svg" id="Layer_1" data-name="Layer 1" viewBox="0 0 64 64"><title>Icons8 RSL Colored Part 5</title><path d="M14.35,46.23,2.84,53.62A4,4,0,0,0,1,57V60.8a2,2,0,0,0,2,2H36.92a2,2,0,0,0,2-2V57a4,4,0,0,0-1.83-3.36L25.56,46.23" style="fill:#85cbf8;"/><path d="M43,57.8H5a4,4,0,0,0-4,4H1a1,1,0,0,0,1,1H46a1,1,0,0,0,1-1h0A4,4,0,0,0,43,57.8Z" style="fill:#6cbae5;"/><path d="M37.35,46.23,25.84,53.62A4,4,0,0,0,24,57V60.8a2,2,0,0,0,2,2H60.92a2,2,0,0,0,2-2V57a4,4,0,0,0-1.83-3.36L49.56,46.23" style="fill:#72caaf;"/><path d="M59,57.8H24v4a1,1,0,0,0,1,1H62a1,1,0,0,0,1-1h0A4,4,0,0,0,59,57.8Z" style="fill:#61bc9e;"/><path d="M35.45,39.42h0c-.22,0-.92-.55-1.28-1.85s0-2.18.13-2.22c0,0,1.33-.22,1.34-.47a8.18,8.18,0,0,1,.13-1.09,3.87,3.87,0,0,0-.06-1.15A14.24,14.24,0,0,1,35.62,29c.24-2.25,1.62-3.59,3.72-3.59a.76.76,0,0,0,.44-.14A9.27,9.27,0,0,1,44.5,24h.74c4.49,0,7.73,2.19,9.06,6-.51-.06-.34.29-.7.62s-1.25.47-.91,1.34a8.19,8.19,0,0,1,.67,2.87c0,.25,1.33-.19,1.34-.19a4.29,4.29,0,0,1,.14,2.89A5.81,5.81,0,0,1,53,40s-1.42,2.84-1.79,3.43C49.58,46,47.18,48,44.5,48c-3.83,0-7.1-4-8.34-8A.74.74,0,0,0,35.45,39.42Z" style="fill:#faefde;"/><path d="M11.45,39.42h0c-.22,0-.92-.55-1.28-1.85s0-2.18.13-2.22c0,0,1.33-.22,1.34-.47a8.18,8.18,0,0,1,.13-1.09,3.87,3.87,0,0,0-.06-1.15A14.24,14.24,0,0,1,11.62,29c.24-2.25,1.62-3.59,3.72-3.59a.76.76,0,0,0,.44-.14A9.27,9.27,0,0,1,20.5,24h.74c4.49,0,7.73,2.19,9.06,6-.51-.06-.34.29-.7.62s-1.25.47-.91,1.34a8.19,8.19,0,0,1,.67,2.87c0,.25,1.33-.19,1.34-.19a4.29,4.29,0,0,1,.14,2.89A5.81,5.81,0,0,1,29,40s-1.42,2.84-1.79,3.43C25.58,46,23.18,48,20.5,48c-3.83,0-7.1-4-8.34-8A.74.74,0,0,0,11.45,39.42Z" style="fill:#faefde;"/><path d="M12.36,32.4a4.82,4.82,0,0,0,4.23-3.23c1.94.65,2.58,2.58,11.63,1.94.9-.06,1,.25,1.29,0s-.47-1.3,0-1.25A8.23,8.23,0,0,0,21.15,24h-.68a8.25,8.25,0,0,0-4.36,1.23.68.68,0,0,1-.41.14c-1.93,0-3.21,1.3-3.43,3.48a14.48,14.48,0,0,0,.09,3.52Z" style="fill:#cda1a7;"/><path d="M36.36,32.4a4.82,4.82,0,0,0,4.23-3.23c1.94.65,2.58,2.58,11.63,1.94.9-.06,1,.25,1.29,0s-.47-1.3,0-1.25A8.23,8.23,0,0,0,45.15,24h-.68a8.25,8.25,0,0,0-4.36,1.23.68.68,0,0,1-.41.14c-1.93,0-3.21,1.3-3.43,3.48a14.48,14.48,0,0,0,.09,3.52Z" style="fill:#8b8e98;"/><path d="M61.63,52,51.07,45.22a15.62,15.62,0,0,0,2.38-4.47,4.2,4.2,0,0,0,2-2.81,5.33,5.33,0,0,0,.13-2.39,2.12,2.12,0,0,0-1.43-1.77l-.08,0a9.93,9.93,0,0,0-.42-1.62l.28.1a1,1,0,0,0,1.36-1.14A9.81,9.81,0,0,0,45.16,23h-.67a10.07,10.07,0,0,0-5,1.34c-2.58.14-4.4,2-4.69,4.9A15.9,15.9,0,0,0,34.9,33c0,.24.07.53.06.6l0,.13-.09,0c-1.31.35-1.86,2.1-1.31,4.15a4.19,4.19,0,0,0,2,2.81,15.71,15.71,0,0,0,2,4L32,48.38l-4.88-3.16a15.62,15.62,0,0,0,2.38-4.47,4.2,4.2,0,0,0,2-2.81,5.33,5.33,0,0,0,.13-2.39,2.12,2.12,0,0,0-1.43-1.77l-.08,0a9.93,9.93,0,0,0-.42-1.62l.28.1a1,1,0,0,0,1.36-1.14A9.81,9.81,0,0,0,21.16,23h-.67a10.07,10.07,0,0,0-5,1.34c-2.58.14-4.4,2-4.69,4.9A15.9,15.9,0,0,0,10.9,33c0,.24.07.53.06.6l0,.13-.09,0c-1.31.35-1.86,2.1-1.31,4.15a4.19,4.19,0,0,0,2,2.81,15.71,15.71,0,0,0,2,4L2.28,52A5,5,0,0,0,0,56.25v4.95A2.81,2.81,0,0,0,2.81,64h58.3a2.81,2.81,0,0,0,2.81-2.81V56.25A5,5,0,0,0,61.63,52Zm.28,9.15a.81.81,0,0,1-.81.81H2.81A.81.81,0,0,1,2,61.19V60a1,1,0,0,0,1-1V57a1,1,0,0,0-1-1,3,3,0,0,1,1.34-2.28l11.5-7.44.42.42a1,1,0,0,0,1.42-1.41l-.94-.95a13.51,13.51,0,0,1-2.49-4.71.93.93,0,0,0-.91-.71h0a2.46,2.46,0,0,1-.89-1.51,3.08,3.08,0,0,1-.07-1.59A1,1,0,0,0,12.82,35a7.73,7.73,0,0,1,.11-1,4.11,4.11,0,0,0-.05-1.19,13.87,13.87,0,0,1-.08-3.37c.2-2,1.3-3.11,3-3.11a1,1,0,0,0,.6-.2A7.83,7.83,0,0,1,20.49,25h.67A7.72,7.72,0,0,1,28.87,30a1.61,1.61,0,0,0-1,.42,1.65,1.65,0,0,0-.27,1.89A7.82,7.82,0,0,1,28.16,35a1,1,0,0,0,.57.83,1.05,1.05,0,0,0,.83,0,3.07,3.07,0,0,1-.06,1.6,2.79,2.79,0,0,1-.84,1.51h0a1,1,0,0,0-1,.72,12.48,12.48,0,0,1-3.89,6.09,1,1,0,1,0,1.24,1.57c.23-.18.45-.37.67-.58l4.4,2.85L28.36,50.7a1,1,0,1,0,1.09,1.68l9.43-6.1.42.42a1,1,0,0,0,1.42-1.41l-.94-.95a13.51,13.51,0,0,1-2.49-4.71.93.93,0,0,0-.91-.71h0a2.46,2.46,0,0,1-.89-1.51,3.08,3.08,0,0,1-.07-1.59A1,1,0,0,0,36.82,35a7.73,7.73,0,0,1,.11-1,4.11,4.11,0,0,0-.05-1.19,13.87,13.87,0,0,1-.08-3.37c.2-2,1.3-3.11,3-3.11a1,1,0,0,0,.6-.2A7.83,7.83,0,0,1,44.49,25h.67A7.72,7.72,0,0,1,52.87,30a1.61,1.61,0,0,0-1,.42,1.65,1.65,0,0,0-.27,1.89A7.82,7.82,0,0,1,52.16,35a1,1,0,0,0,.57.83,1.05,1.05,0,0,0,.83,0,3.07,3.07,0,0,1-.06,1.6,2.79,2.79,0,0,1-.84,1.51h0a1,1,0,0,0-1,.72,12.48,12.48,0,0,1-3.89,6.09,1,1,0,1,0,1.24,1.57c.23-.18.45-.37.67-.58l10.83,7a3,3,0,0,1,1.37,2.52Z" style="fill:#8d6c9f;"/><path d="M42,56a1,1,0,0,0-1,1v2a1,1,0,0,0,2,0V57A1,1,0,0,0,42,56Z" style="fill:#8d6c9f;"/><path d="M47,56a1,1,0,0,0-1,1v2a1,1,0,0,0,2,0V57A1,1,0,0,0,47,56Z" style="fill:#8d6c9f;"/><path d="M52,56a1,1,0,0,0-1,1v2a1,1,0,0,0,2,0V57A1,1,0,0,0,52,56Z" style="fill:#8d6c9f;"/><path d="M57,56a1,1,0,0,0-1,1v2a1,1,0,0,0,2,0V57A1,1,0,0,0,57,56Z" style="fill:#8d6c9f;"/><path d="M37,56a1,1,0,0,0-1,1v2a1,1,0,0,0,2,0V57A1,1,0,0,0,37,56Z" style="fill:#8d6c9f;"/><path d="M32,56a1,1,0,0,0-1,1v2a1,1,0,0,0,2,0V57A1,1,0,0,0,32,56Z" style="fill:#8d6c9f;"/><path d="M27,56a1,1,0,0,0-1,1v2a1,1,0,0,0,2,0V57A1,1,0,0,0,27,56Z" style="fill:#8d6c9f;"/><path d="M22,56a1,1,0,0,0-1,1v2a1,1,0,0,0,2,0V57A1,1,0,0,0,22,56Z" style="fill:#8d6c9f;"/><path d="M17,56a1,1,0,0,0-1,1v2a1,1,0,0,0,2,0V57A1,1,0,0,0,17,56Z" style="fill:#8d6c9f;"/><path d="M12,56a1,1,0,0,0-1,1v2a1,1,0,0,0,2,0V57A1,1,0,0,0,12,56Z" style="fill:#8d6c9f;"/><path d="M7,56a1,1,0,0,0-1,1v2a1,1,0,0,0,2,0V57A1,1,0,0,0,7,56Z" style="fill:#8d6c9f;"/><path d="M51.92,15.38a1,1,0,0,0-.22-1.09l-5-5a1,1,0,0,0-1.41,1.41L48.59,14H27a1,1,0,0,0,0,2H48.59l-3.29,3.29a1,1,0,1,0,1.41,1.41l5-5A1,1,0,0,0,51.92,15.38Z" style="fill:#8d6c9f;"/><path d="M15.41,8H31a1,1,0,0,0,0-2H15.41l3.29-3.29a1,1,0,0,0-1.41-1.41l-5,5a1,1,0,0,0,0,1.42l5,5a1,1,0,0,0,1.41-1.41Z" style="fill:#8d6c9f;"/><path d="M35,8h4a1,1,0,0,0,0-2H35a1,1,0,0,0,0,2Z" style="fill:#8d6c9f;"/></svg>
