<?xml version="1.0"?>
<svg xmlns="http://www.w3.org/2000/svg" id="Layer_1" data-name="Layer 1" viewBox="0 0 64 64"><title>Dusk Part 2</title><circle cx="30.95" cy="30.99" r="28" transform="translate(-6.64 53.47) rotate(-75.92)" style="fill:#f9e3ae;"/><path d="M48.29,14h0a3,3,0,0,0,.45-4.83A28,28,0,0,0,11.49,10a3,3,0,0,0,1.35,5.08h0a3,3,0,0,0,2.75-.7,22,22,0,0,1,29.18-.76A3,3,0,0,0,48.29,14Z" style="fill:#faefde;"/><path d="M52.94,31.74c-.21,6.31-3.14,12.92-10,18.42a3.26,3.26,0,0,1-.75.45c-8.09,3.45-15.29,2.91-20.94.12a3,3,0,0,0-2.85.12h0a3,3,0,0,0,.25,5.29c7.28,3.56,16.59,4.17,26.8-.09a3.25,3.25,0,0,0,.8-.48c8.57-7,12.42-15.48,12.72-23.58a3,3,0,0,0-4.54-2.71h0A3,3,0,0,0,52.94,31.74Z" style="fill:#f6d397;"/><path d="M31,2A29,29,0,1,0,60,31,29,29,0,0,0,31,2Zm0,56A27,27,0,1,1,58,31,27,27,0,0,1,31,58Z" style="fill:#8d6c9f;"/><path d="M41.21,49.36A21.23,21.23,0,0,1,27.3,51.67a1,1,0,0,0-.35,2A23.08,23.08,0,0,0,42.19,51.1a1,1,0,0,0-1-1.75Z" style="fill:#8d6c9f;"/><path d="M46.43,45.25a21.25,21.25,0,0,1-1.69,1.64A1,1,0,1,0,46,48.4,23.08,23.08,0,0,0,47.9,46.6a1,1,0,0,0-1.47-1.36Z" style="fill:#8d6c9f;"/><path d="M43,20a1,1,0,0,0-1,1,3,3,0,0,1-6,0,1,1,0,0,0-2,0,5,5,0,0,0,10,0A1,1,0,0,0,43,20Z" style="fill:#8d6c9f;"/><path d="M37.72,40.6a1,1,0,1,0,1.67-1.1C37.1,36,32.73,34.1,27.1,34.1c-5.46,0-9.92,2-12.23,5.39a1,1,0,0,0,1.66,1.12c1.93-2.87,5.79-4.51,10.57-4.51C32,36.1,35.81,37.7,37.72,40.6Z" style="fill:#8d6c9f;"/><path d="M20,21a1,1,0,0,0-2,0,3,3,0,0,1-6,0,1,1,0,0,0-2,0,5,5,0,0,0,10,0Z" style="fill:#8d6c9f;"/></svg>
