<?xml version="1.0"?>
<svg xmlns="http://www.w3.org/2000/svg" id="Layer_1" data-name="Layer 1" viewBox="0 0 64 64"><title>Icons8 RSL Colored Part 5</title><path d="M54.29,11.57l-3.5-.23A27.89,27.89,0,0,1,35.16,5.26L33.81,4.18a2.88,2.88,0,0,0-3.62,0L28.84,5.26A27.89,27.89,0,0,1,13.2,11.34l-3.5.23A2.91,2.91,0,0,0,7,14.65l.67,9.22a39.35,39.35,0,0,0,13.51,27l8.91,7.75a2.91,2.91,0,0,0,3.8,0l8.91-7.75a39.36,39.36,0,0,0,13.51-27L57,14.64A2.9,2.9,0,0,0,54.29,11.57Z" style="fill:#ed7899;"/><path d="M54.29,11.57l-3.5-.23A27.89,27.89,0,0,1,35.16,5.26L33.81,4.18A2.89,2.89,0,0,0,32,3.54V59.36a2.89,2.89,0,0,0,1.9-.71l8.91-7.75a39.36,39.36,0,0,0,13.51-27L57,14.64A2.9,2.9,0,0,0,54.29,11.57Z" style="fill:#e0678f;"/><polygon points="44.5 24 45.74 26.26 48 27.5 45.74 28.74 44.5 31 43.26 28.74 41 27.5 43.26 26.26 44.5 24" style="fill:#f283a5;"/><polygon points="22.42 20 23.27 21.56 24.84 22.42 23.27 23.27 22.42 24.84 21.56 23.27 20 22.42 21.56 21.56 22.42 20" style="fill:#f283a5;"/><polygon points="20.65 36 21.23 37.06 22.3 37.65 21.23 38.23 20.65 39.3 20.07 38.23 19 37.65 20.07 37.06 20.65 36" style="fill:#f283a5;"/><circle cx="32.04" cy="37" r="2" style="fill:#faefde;"/><path d="M31,32a1,1,0,1,0,2,0V31l.92-14a1.93,1.93,0,0,0-.51-1.46,1.87,1.87,0,0,0-1.14-.56.7.7,0,0,0-.54,0,1.87,1.87,0,0,0-1.14.56,1.92,1.92,0,0,0-.51,1.44L31,31Z" style="fill:#faefde;"/><path d="M22,43a1,1,0,0,0-1,1v2a1,1,0,0,0,2,0V44A1,1,0,0,0,22,43Z" style="fill:#8d6c9f;"/><path d="M27,43a1,1,0,0,0-1,1v2a1,1,0,0,0,2,0V44A1,1,0,0,0,27,43Z" style="fill:#8d6c9f;"/><path d="M32,43a1,1,0,0,0-1,1v2a1,1,0,0,0,2,0V44A1,1,0,0,0,32,43Z" style="fill:#8d6c9f;"/><path d="M37,43a1,1,0,0,0-1,1v2a1,1,0,0,0,2,0V44A1,1,0,0,0,37,43Z" style="fill:#8d6c9f;"/><path d="M42,43a1,1,0,0,0-1,1v2a1,1,0,0,0,2,0V44A1,1,0,0,0,42,43Z" style="fill:#8d6c9f;"/><path d="M55.08,9.87l-3.62-.24A28.87,28.87,0,0,1,35.27,3.34l-1.4-1.12a3,3,0,0,0-3.75,0l-1.4,1.12A28.85,28.85,0,0,1,12.54,9.63l-3.62.24A3,3,0,0,0,6.13,13L6.82,24.6a40.74,40.74,0,0,0,14,28l9.23,8a3,3,0,0,0,3.94,0l9.23-8a40.75,40.75,0,0,0,14-28L57.87,13A3,3,0,0,0,55.08,9.87Zm.11,14.59A38.75,38.75,0,0,1,48,44.37V44a1,1,0,0,0-2,0v2a1,1,0,0,0,.24.63,39.47,39.47,0,0,1-4.36,4.45l-9.23,8a1,1,0,0,1-1.31,0l-9.23-8a39.46,39.46,0,0,1-4.36-4.45A1,1,0,0,0,18,46V44a1,1,0,0,0-2,0v.37a38.73,38.73,0,0,1-7.19-19.9L8.12,12.92a1,1,0,0,1,.93-1.06l3.62-.24A30.85,30.85,0,0,0,30,4.9l1.4-1.12a1,1,0,0,1,1.25,0L34,4.9a30.86,30.86,0,0,0,17.3,6.72l3.62.24a1,1,0,0,1,.93,1.06Z" style="fill:#8d6c9f;"/><path d="M44.21,12.66a29,29,0,0,1-8.49-4.08l-2.57-1.8a2,2,0,0,0-2.29,0l-2.57,1.8a29,29,0,0,1-14.7,5.18l-.65,0a1,1,0,0,0,.07,2h.07l.65,0a31,31,0,0,0,15.72-5.54L32,8.42l2.57,1.8a30.94,30.94,0,0,0,9.08,4.36,1,1,0,1,0,.56-1.92Z" style="fill:#8d6c9f;"/><path d="M51,13.8l-.59,0c-.76-.05-1.53-.13-2.28-.24a1,1,0,1,0-.29,2c.8.12,1.62.21,2.44.26l.59,0h.07a1,1,0,0,0,.07-2Z" style="fill:#8d6c9f;"/></svg>
