<?xml version="1.0"?>
<svg xmlns="http://www.w3.org/2000/svg" id="Layer_1" data-name="Layer 1" viewBox="0 0 64 64"><title>Icons8 RSL Colored Part 11</title><rect x="11" y="57" width="6" height="4" style="fill:#a0aecb;"/><rect x="1" y="41" width="26" height="16" style="fill:#c5e4fa;"/><polygon points="21.57 57 27 51.57 27 42.14 12.14 57 21.57 57" style="fill:#e3f2ff;"/><polygon points="8.86 57 24.86 41 19.5 41 3.5 57 8.86 57" style="fill:#e3f2ff;"/><polygon points="1 56.86 16.86 41 14.5 41 1 54.5 1 56.86" style="fill:#e3f2ff;"/><rect x="37" y="41" width="26" height="16" style="fill:#c5e4fa;"/><polygon points="57.57 57 63 51.57 63 42.14 48.14 57 57.57 57" style="fill:#e3f2ff;"/><polygon points="44.86 57 60.86 41 55.5 41 39.5 57 44.86 57" style="fill:#e3f2ff;"/><polygon points="37 56.86 52.86 41 50.5 41 37 54.5 37 56.86" style="fill:#e3f2ff;"/><rect x="1" y="53" width="26" height="4" style="fill:#cfd9ed;"/><rect x="13" y="3" width="38" height="4" style="fill:#cfd9ed;"/><rect x="13" y="7" width="38" height="22" style="fill:#85cbf8;"/><path d="M16,24H48a3,3,0,0,1,3,3v2a0,0,0,0,1,0,0H13a0,0,0,0,1,0,0V27a3,3,0,0,1,3-3Z" style="fill:#6fc6f0;"/><rect x="47" y="57" width="6" height="4" style="fill:#a0aecb;"/><rect x="37" y="53" width="26" height="4" style="fill:#cfd9ed;"/><path d="M61,40H50.87a1,1,0,0,0-.26-.29L37.95,30H49a3,3,0,0,0,3-3V5a3,3,0,0,0-3-3H15a3,3,0,0,0-3,3V27a3,3,0,0,0,3,3H26L12.9,39.7a1,1,0,0,0-.27.3H3a3,3,0,0,0-3,3V55a3,3,0,0,0,3,3h7v2H7a1,1,0,0,0,0,2H21a1,1,0,0,0,0-2H18V58h7a3,3,0,0,0,3-3V43a3,3,0,0,0-3-3H15.85L29.33,30h5.33l13,10H39a3,3,0,0,0-3,3V55a3,3,0,0,0,3,3h7v2H43a1,1,0,0,0,0,2H57a1,1,0,0,0,0-2H54V58h7a3,3,0,0,0,3-3V43A3,3,0,0,0,61,40ZM16,60H12V58h4ZM26,43v9H23a1,1,0,0,0,0,2h3v1a1,1,0,0,1-1,1H3a1,1,0,0,1-1-1V54H19.08a1,1,0,0,0,0-2H2V43a1,1,0,0,1,1-1H25A1,1,0,0,1,26,43ZM15,4H49a1,1,0,0,1,1,1V6H14V5A1,1,0,0,1,15,4ZM14,27V8H50V27a1,1,0,0,1-1,1H15A1,1,0,0,1,14,27ZM52,60H48V58h4Zm9-4H39a1,1,0,0,1-1-1V54H55.08a1,1,0,0,0,0-2H38V43a1,1,0,0,1,1-1H61a1,1,0,0,1,1,1v9H59a1,1,0,0,0,0,2h3v1A1,1,0,0,1,61,56Z" style="fill:#8d6c9f;"/><path d="M17,22a1,1,0,0,0-1,1v2a1,1,0,0,0,2,0V23A1,1,0,0,0,17,22Z" style="fill:#8d6c9f;"/><path d="M22,22a1,1,0,0,0-1,1v2a1,1,0,0,0,2,0V23A1,1,0,0,0,22,22Z" style="fill:#8d6c9f;"/><path d="M27,22a1,1,0,0,0-1,1v2a1,1,0,0,0,2,0V23A1,1,0,0,0,27,22Z" style="fill:#8d6c9f;"/><path d="M32,22a1,1,0,0,0-1,1v2a1,1,0,0,0,2,0V23A1,1,0,0,0,32,22Z" style="fill:#8d6c9f;"/><path d="M37,22a1,1,0,0,0-1,1v2a1,1,0,0,0,2,0V23A1,1,0,0,0,37,22Z" style="fill:#8d6c9f;"/><path d="M42,22a1,1,0,0,0-1,1v2a1,1,0,0,0,2,0V23A1,1,0,0,0,42,22Z" style="fill:#8d6c9f;"/><path d="M47,22a1,1,0,0,0-1,1v2a1,1,0,0,0,2,0V23A1,1,0,0,0,47,22Z" style="fill:#8d6c9f;"/><path d="M23,12H21a1,1,0,0,0-1,1,.91.91,0,0,0,1,1h2a.91.91,0,0,0,1-1A.91.91,0,0,0,23,12Z" style="fill:#f5f5f5;"/><path d="M23,16H21a1,1,0,0,0-1,1,.91.91,0,0,0,1,1h2a.91.91,0,0,0,1-1A.91.91,0,0,0,23,16Z" style="fill:#f5f5f5;"/><path d="M43,12H27a1,1,0,0,0,0,2H43a1,1,0,0,0,0-2Z" style="fill:#f5f5f5;"/><path d="M43,16H27a1,1,0,0,0,0,2H43a1,1,0,0,0,0-2Z" style="fill:#f5f5f5;"/></svg>
