<?xml version="1.0" encoding="iso-8859-1"?>
<!-- Generator: Adobe Illustrator 21.1.0, SVG Export Plug-In . SVG Version: 6.00 Build 0)  -->
<svg xmlns="http://www.w3.org/2000/svg" xmlns:xlink="http://www.w3.org/1999/xlink" version="1.1" id="Layer_1" x="0px" y="0px" viewBox="0 0 64 64" style="enable-background:new 0 0 64 64;" xml:space="preserve">
<g>
	<path style="fill:#FAEFDE;" d="M59,45H5c-1.105,0-2-0.895-2-2V5c0-1.105,0.895-2,2-2h54c1.105,0,2,0.895,2,2v38   C61,44.105,60.105,45,59,45z"/>
	<rect x="3" y="3" style="fill:#FFF7F0;" width="58" height="3"/>
	<rect x="3" y="42" style="fill:#EFD8BE;" width="58" height="3"/>
	<path style="fill:#FAEFDE;" d="M59,61H5c-1.105,0-2-0.895-2-2v-8c0-1.105,0.895-2,2-2h54c1.105,0,2,0.895,2,2v8   C61,60.105,60.105,61,59,61z"/>
	<path style="fill:#EFD8BE;" d="M61,61H3v-2c0-2.209,1.791-4,4-4h50c2.209,0,4,1.791,4,4V61z"/>
	<rect x="9" y="9" style="fill:#8B8E98;" width="46" height="30"/>
	<polygon style="fill:#91949B;" points="37,9 9,37 9,31 31,9  "/>
	<polygon style="fill:#91949B;" points="28,9 9,28 9,25 25,9  "/>
	<polygon style="fill:#91949B;" points="55,9 55,19 35,39 11.39,39 41.4,9  "/>
	<circle style="fill:#72CAAF;" cx="52.744" cy="54.931" r="1.744"/>
	<g>
		<path style="fill:#8D6C9F;" d="M59,48H5c-1.654,0-3,1.346-3,3v8c0,1.654,1.346,3,3,3h54c1.654,0,3-1.346,3-3v-8    C62,49.346,60.654,48,59,48z M60,59c0,0.551-0.448,1-1,1H5c-0.552,0-1-0.449-1-1v-8c0-0.551,0.448-1,1-1h54c0.552,0,1,0.449,1,1    V59z"/>
		<path style="fill:#8D6C9F;" d="M53,52c-1.654,0-3,1.346-3,3s1.346,3,3,3s3-1.346,3-3S54.654,52,53,52z M53,56.458    c-0.805,0-1.458-0.654-1.458-1.458s0.654-1.458,1.458-1.458s1.458,0.654,1.458,1.458S53.805,56.458,53,56.458z"/>
		<path style="fill:#8D6C9F;" d="M29,54H9c-0.553,0-1,0.448-1,1s0.447,1,1,1h20c0.553,0,1-0.448,1-1S29.553,54,29,54z"/>
		<path style="fill:#8D6C9F;" d="M59,2H5C3.346,2,2,3.346,2,5v38c0,1.654,1.346,3,3,3h54c1.654,0,3-1.346,3-3V5    C62,3.346,60.654,2,59,2z M60,43c0,0.551-0.448,1-1,1H5c-0.552,0-1-0.449-1-1V5c0-0.551,0.448-1,1-1h54c0.552,0,1,0.449,1,1V43z"/>
		<path style="fill:#8D6C9F;" d="M55,8H9C8.447,8,8,8.448,8,9v30c0,0.552,0.447,1,1,1h46c0.553,0,1-0.448,1-1V9    C56,8.448,55.553,8,55,8z M54,38H10V10h44V38z"/>
		<path style="fill:#8D6C9F;" d="M37,54h-4c-0.553,0-1,0.448-1,1s0.447,1,1,1h4c0.553,0,1-0.448,1-1S37.553,54,37,54z"/>
		<path style="fill:#FAEFDE;" d="M17,16c0.553,0,1-0.448,1-1v-2c0-0.552-0.447-1-1-1s-1,0.448-1,1v2C16,15.552,16.447,16,17,16z"/>
		<path style="fill:#FAEFDE;" d="M12,16c0.553,0,1-0.448,1-1v-2c0-0.552-0.447-1-1-1s-1,0.448-1,1v2C11,15.552,11.447,16,12,16z"/>
		<path style="fill:#FAEFDE;" d="M22,16c0.553,0,1-0.448,1-1v-2c0-0.552-0.447-1-1-1s-1,0.448-1,1v2C21,15.552,21.447,16,22,16z"/>
		<path style="fill:#FAEFDE;" d="M27,16c0.553,0,1-0.448,1-1v-2c0-0.552-0.447-1-1-1s-1,0.448-1,1v2C26,15.552,26.447,16,27,16z"/>
		<path style="fill:#FAEFDE;" d="M32,16c0.553,0,1-0.448,1-1v-2c0-0.552-0.447-1-1-1s-1,0.448-1,1v2C31,15.552,31.447,16,32,16z"/>
		<path style="fill:#FAEFDE;" d="M42,16c0.553,0,1-0.448,1-1v-2c0-0.552-0.447-1-1-1s-1,0.448-1,1v2C41,15.552,41.447,16,42,16z"/>
		<path style="fill:#FAEFDE;" d="M37,16c0.553,0,1-0.448,1-1v-2c0-0.552-0.447-1-1-1s-1,0.448-1,1v2C36,15.552,36.447,16,37,16z"/>
		<path style="fill:#FAEFDE;" d="M47,16c0.553,0,1-0.448,1-1v-2c0-0.552-0.447-1-1-1s-1,0.448-1,1v2C46,15.552,46.447,16,47,16z"/>
		<path style="fill:#FAEFDE;" d="M52,16c0.553,0,1-0.448,1-1v-2c0-0.552-0.447-1-1-1s-1,0.448-1,1v2C51,15.552,51.447,16,52,16z"/>
	</g>
</g>
</svg>
