<?xml version="1.0" encoding="iso-8859-1"?>
<!-- Generator: Adobe Illustrator 21.1.0, SVG Export Plug-In . SVG Version: 6.00 Build 0)  -->
<svg xmlns="http://www.w3.org/2000/svg" xmlns:xlink="http://www.w3.org/1999/xlink" version="1.1" id="Layer_1" x="0px" y="0px" viewBox="0 0 64 64" style="enable-background:new 0 0 64 64;" xml:space="preserve">
<g>
	<path style="fill:#72CAAF;" d="M61,32c0-3.692-1.82-6.957-4.61-8.952c-0.627-0.448-0.94-1.204-0.814-1.965   c0.563-3.384-0.46-6.979-3.07-9.59s-6.206-3.633-9.59-3.07C42.156,8.55,41.4,8.237,40.952,7.61C38.957,4.82,35.692,3,32,3   s-6.957,1.82-8.952,4.61c-0.448,0.627-1.204,0.94-1.965,0.814c-3.384-0.563-6.979,0.46-9.59,3.07s-3.633,6.206-3.07,9.59   c0.126,0.76-0.187,1.516-0.814,1.965C4.82,25.043,3,28.308,3,32c0,3.692,1.82,6.957,4.61,8.952c0.627,0.448,0.94,1.204,0.814,1.965   c-0.562,3.384,0.46,6.979,3.07,9.59c2.61,2.61,6.206,3.633,9.59,3.07c0.76-0.126,1.516,0.187,1.965,0.814   C25.043,59.18,28.308,61,32,61s6.957-1.82,8.952-4.61c0.448-0.627,1.204-0.94,1.965-0.814c3.384,0.562,6.979-0.46,9.59-3.07   c2.61-2.61,3.633-6.206,3.07-9.59c-0.126-0.76,0.187-1.516,0.814-1.965C59.18,38.957,61,35.692,61,32z"/>
	<circle style="fill:#88D7B6;" cx="32" cy="32" r="19"/>
	<g>
		<path style="fill:#8D6C9F;" d="M56.972,22.235c-0.315-0.226-0.473-0.605-0.409-0.988c0.635-3.818-0.617-7.729-3.35-10.46    c-2.265-2.266-5.277-3.513-8.481-3.513c-0.661,0-1.327,0.055-1.979,0.164c-0.382,0.063-0.762-0.093-0.987-0.409    C39.515,3.88,35.864,2,32,2s-7.515,1.88-9.766,5.028c-0.226,0.316-0.604,0.473-0.987,0.409c-0.651-0.108-1.317-0.164-1.979-0.164    c-3.204,0-6.217,1.248-8.481,3.513c-2.732,2.732-3.984,6.643-3.35,10.46c0.063,0.383-0.094,0.762-0.408,0.988    C3.88,24.485,2,28.136,2,32s1.88,7.515,5.028,9.765c0.315,0.226,0.473,0.605,0.409,0.988c-0.635,3.818,0.617,7.729,3.35,10.46    c2.265,2.266,5.277,3.513,8.481,3.513c0.661,0,1.327-0.055,1.979-0.164c0.383-0.062,0.762,0.093,0.987,0.409    C24.485,60.12,28.136,62,32,62s7.515-1.88,9.766-5.028c0.226-0.316,0.605-0.471,0.987-0.409c0.651,0.108,1.317,0.164,1.979,0.164    c3.204,0,6.217-1.248,8.481-3.513c2.732-2.732,3.984-6.643,3.35-10.46c-0.063-0.383,0.094-0.762,0.408-0.988    C60.12,39.515,62,35.864,62,32S60.12,24.485,56.972,22.235z M55.808,40.139c-0.94,0.673-1.407,1.8-1.218,2.942    c0.529,3.183-0.515,6.441-2.791,8.718c-1.888,1.888-4.397,2.927-7.067,2.927c-0.552,0-1.107-0.046-1.65-0.136    c-1.144-0.19-2.281,0.295-2.942,1.219C38.263,58.433,35.22,60,32,60s-6.263-1.567-8.139-4.191c-0.564-0.789-1.478-1.26-2.444-1.26    c-0.165,0-0.331,0.014-0.498,0.042c-0.544,0.09-1.099,0.136-1.65,0.136c-2.67,0-5.18-1.04-7.067-2.927    c-2.276-2.277-3.32-5.536-2.791-8.719c0.189-1.142-0.277-2.269-1.219-2.942C5.567,38.262,4,35.22,4,32s1.567-6.262,4.192-8.139    c0.94-0.673,1.407-1.8,1.218-2.942c-0.529-3.183,0.515-6.441,2.791-8.718c1.888-1.888,4.397-2.927,7.067-2.927    c0.552,0,1.106,0.046,1.65,0.136c1.147,0.192,2.282-0.295,2.942-1.219C25.737,5.567,28.78,4,32,4s6.263,1.567,8.139,4.191    c0.661,0.924,1.798,1.41,2.942,1.219c0.544-0.09,1.099-0.136,1.65-0.136c2.67,0,5.18,1.04,7.067,2.927    c2.276,2.277,3.32,5.536,2.791,8.719c-0.189,1.142,0.277,2.269,1.219,2.942C58.433,25.738,60,28.78,60,32    S58.433,38.262,55.808,40.139z"/>
		<path style="fill:#8D6C9F;" d="M32,49c-0.553,0-1,0.448-1,1v2c0,0.552,0.447,1,1,1s1-0.448,1-1v-2C33,49.448,32.553,49,32,49z"/>
		<path style="fill:#8D6C9F;" d="M32,15c0.553,0,1-0.448,1-1v-2c0-0.552-0.447-1-1-1s-1,0.448-1,1v2C31,14.552,31.447,15,32,15z"/>
		<path style="fill:#8D6C9F;" d="M52,31h-2c-0.553,0-1,0.448-1,1s0.447,1,1,1h2c0.553,0,1-0.448,1-1S52.553,31,52,31z"/>
		<path style="fill:#8D6C9F;" d="M14,33c0.553,0,1-0.448,1-1s-0.447-1-1-1h-2c-0.553,0-1,0.448-1,1s0.447,1,1,1H14z"/>
		<path style="fill:#8D6C9F;" d="M18.565,44.021l-1.415,1.414c-0.391,0.391-0.391,1.024,0,1.415    c0.195,0.195,0.451,0.293,0.707,0.293s0.512-0.098,0.707-0.292l1.415-1.414c0.391-0.391,0.391-1.024,0-1.415    S18.956,43.631,18.565,44.021z"/>
		<path style="fill:#8D6C9F;" d="M44.728,20.272c0.256,0,0.512-0.098,0.707-0.292l1.415-1.414c0.391-0.391,0.391-1.024,0-1.415    s-1.023-0.39-1.414,0l-1.415,1.414c-0.391,0.391-0.391,1.024,0,1.415C44.216,20.174,44.472,20.272,44.728,20.272z"/>
		<path style="fill:#8D6C9F;" d="M45.435,44.021c-0.391-0.39-1.023-0.39-1.414,0s-0.391,1.024,0,1.415l1.415,1.414    c0.195,0.195,0.451,0.292,0.707,0.292s0.512-0.098,0.707-0.293c0.391-0.391,0.391-1.024,0-1.415L45.435,44.021z"/>
		<path style="fill:#8D6C9F;" d="M18.565,19.979c0.195,0.195,0.451,0.292,0.707,0.292s0.512-0.098,0.707-0.293    c0.391-0.391,0.391-1.024,0-1.415l-1.415-1.414c-0.391-0.39-1.023-0.39-1.414,0s-0.391,1.024,0,1.415L18.565,19.979z"/>
		<path style="fill:#8D6C9F;" d="M37.625,49.128c-0.143-0.534-0.691-0.849-1.225-0.707c-0.533,0.143-0.85,0.691-0.707,1.225    l0.518,1.932c0.119,0.447,0.523,0.742,0.965,0.742c0.086,0,0.173-0.011,0.26-0.035c0.533-0.143,0.85-0.691,0.707-1.225    L37.625,49.128z"/>
		<path style="fill:#8D6C9F;" d="M26.375,14.872c0.119,0.447,0.523,0.742,0.965,0.742c0.086,0,0.173-0.011,0.26-0.035    c0.533-0.143,0.85-0.691,0.707-1.225l-0.518-1.932c-0.143-0.534-0.689-0.851-1.225-0.707c-0.533,0.143-0.85,0.691-0.707,1.225    L26.375,14.872z"/>
		<path style="fill:#8D6C9F;" d="M48.421,27.6c0.119,0.447,0.523,0.742,0.965,0.742c0.086,0,0.173-0.011,0.26-0.035l1.932-0.518    c0.533-0.143,0.85-0.691,0.707-1.225c-0.142-0.534-0.689-0.851-1.225-0.707l-1.932,0.518C48.595,26.519,48.278,27.067,48.421,27.6    z"/>
		<path style="fill:#8D6C9F;" d="M15.579,36.4c-0.143-0.534-0.689-0.849-1.225-0.707l-1.932,0.518    c-0.533,0.143-0.85,0.691-0.707,1.225c0.119,0.447,0.523,0.742,0.965,0.742c0.086,0,0.173-0.011,0.26-0.035l1.932-0.518    C15.405,37.481,15.722,36.933,15.579,36.4z"/>
		<path style="fill:#8D6C9F;" d="M23.5,46.722c-0.479-0.276-1.089-0.112-1.366,0.366l-1,1.732c-0.276,0.478-0.112,1.09,0.366,1.366    c0.157,0.091,0.329,0.134,0.499,0.134c0.346,0,0.682-0.179,0.867-0.5l1-1.732C24.143,47.61,23.979,46.999,23.5,46.722z"/>
		<path style="fill:#8D6C9F;" d="M40.5,17.278c0.157,0.091,0.329,0.134,0.499,0.134c0.346,0,0.682-0.179,0.867-0.5l1-1.732    c0.276-0.478,0.112-1.09-0.366-1.366c-0.478-0.276-1.09-0.112-1.366,0.366l-1,1.732C39.857,16.39,40.021,17.001,40.5,17.278z"/>
		<path style="fill:#8D6C9F;" d="M49.82,41.134l-1.731-1c-0.478-0.277-1.09-0.113-1.366,0.366c-0.276,0.478-0.112,1.09,0.366,1.366    l1.731,1C48.978,42.957,49.149,43,49.319,43c0.346,0,0.682-0.179,0.867-0.5C50.463,42.022,50.299,41.41,49.82,41.134z"/>
		<path style="fill:#8D6C9F;" d="M14.18,22.866l1.731,1C16.068,23.957,16.24,24,16.41,24c0.346,0,0.682-0.179,0.867-0.5    c0.276-0.478,0.112-1.09-0.366-1.366l-1.731-1c-0.478-0.278-1.091-0.113-1.366,0.366C13.537,21.978,13.701,22.59,14.18,22.866z"/>
		<path style="fill:#8D6C9F;" d="M41.866,47.088c-0.277-0.479-0.89-0.643-1.366-0.366c-0.479,0.276-0.643,0.888-0.366,1.366l1,1.732    c0.186,0.321,0.521,0.5,0.867,0.5c0.17,0,0.342-0.043,0.499-0.134c0.479-0.276,0.643-0.888,0.366-1.366L41.866,47.088z"/>
		<path style="fill:#8D6C9F;" d="M22.134,16.912c0.186,0.321,0.521,0.5,0.867,0.5c0.17,0,0.342-0.043,0.499-0.134    c0.479-0.276,0.643-0.888,0.366-1.366l-1-1.732c-0.277-0.479-0.891-0.642-1.366-0.366c-0.479,0.276-0.643,0.888-0.366,1.366    L22.134,16.912z"/>
		<path style="fill:#8D6C9F;" d="M46.723,23.5c0.186,0.321,0.521,0.5,0.867,0.5c0.17,0,0.342-0.043,0.499-0.134l1.731-1    c0.479-0.276,0.643-0.888,0.366-1.366c-0.277-0.479-0.89-0.644-1.366-0.366l-1.731,1C46.61,22.41,46.446,23.022,46.723,23.5z"/>
		<path style="fill:#8D6C9F;" d="M17.277,40.5c-0.277-0.479-0.891-0.643-1.366-0.366l-1.731,1c-0.479,0.276-0.643,0.888-0.366,1.366    c0.186,0.321,0.521,0.5,0.867,0.5c0.17,0,0.342-0.043,0.499-0.134l1.731-1C17.39,41.59,17.554,40.978,17.277,40.5z"/>
		<path style="fill:#8D6C9F;" d="M27.6,48.421c-0.532-0.141-1.082,0.173-1.225,0.707l-0.518,1.932    c-0.143,0.533,0.174,1.082,0.707,1.225c0.087,0.023,0.174,0.035,0.26,0.035c0.441,0,0.846-0.295,0.965-0.742l0.518-1.932    C28.449,49.112,28.133,48.564,27.6,48.421z"/>
		<path style="fill:#8D6C9F;" d="M36.4,15.579c0.087,0.023,0.174,0.035,0.26,0.035c0.441,0,0.846-0.295,0.965-0.742l0.518-1.932    c0.143-0.533-0.174-1.082-0.707-1.225c-0.531-0.143-1.082,0.173-1.225,0.707l-0.518,1.932    C35.551,14.888,35.867,15.436,36.4,15.579z"/>
		<path style="fill:#8D6C9F;" d="M51.577,36.21l-1.932-0.518c-0.531-0.141-1.082,0.173-1.225,0.707    c-0.143,0.533,0.174,1.082,0.707,1.225l1.932,0.518c0.087,0.023,0.174,0.035,0.26,0.035c0.441,0,0.846-0.295,0.965-0.742    C52.427,36.902,52.11,36.354,51.577,36.21z"/>
		<path style="fill:#8D6C9F;" d="M12.423,27.79l1.932,0.518c0.087,0.023,0.174,0.035,0.26,0.035c0.441,0,0.846-0.295,0.965-0.742    c0.143-0.533-0.174-1.082-0.707-1.225l-1.932-0.518c-0.53-0.143-1.082,0.173-1.225,0.707C11.573,27.098,11.89,27.646,12.423,27.79    z"/>
		<path style="fill:#F9EFDE;" d="M44.707,24.293c-0.391-0.391-1.023-0.391-1.414,0L29,38.586l-7.293-7.293    c-0.391-0.391-1.023-0.391-1.414,0s-0.391,1.023,0,1.414l8,8C28.488,40.902,28.744,41,29,41s0.512-0.098,0.707-0.293l15-15    C45.098,25.316,45.098,24.684,44.707,24.293z"/>
	</g>
</g>
</svg>
