<?xml version="1.0"?>
<svg xmlns="http://www.w3.org/2000/svg" id="Layer_1" data-name="Layer 1" viewBox="0 0 64 64"><title>Dusk Part 1</title><circle cx="27" cy="49" r="14" style="fill:#f6d397;"/><circle cx="40.93" cy="35.07" r="19.93" style="fill:#ffefca;"/><circle cx="25" cy="25" r="18.86" style="fill:#f9e3ae;"/><path d="M9.33,43.25a24,24,0,0,0,7.87,5L46.43,19V13.49a24.08,24.08,0,0,0-3.18-4.17Z" style="fill:#ffefca;"/><path d="M7.65,41.49,41.29,7.86H36.14L5.47,38.53A24.07,24.07,0,0,0,7.65,41.49Z" style="fill:#ffefca;"/><path d="M5.11,35.46,33.57,7,31,5.29,3.88,32.4A23.84,23.84,0,0,0,5.11,35.46Z" style="fill:#ffefca;"/><path d="M25,1A24,24,0,1,0,49,25,24,24,0,0,0,25,1Zm0,42.86A18.86,18.86,0,1,1,38,11.35l.58.58q.33.35.65.71A18.86,18.86,0,0,1,25,43.86Z" style="fill:#f6d397;"/><polygon points="13.28 20.28 14.35 22.22 16.29 23.28 14.35 24.34 13.28 26.29 12.22 24.34 10.28 23.28 12.22 22.22 13.28 20.28" style="fill:#fff8f8;"/><polygon points="35.59 29.03 36.09 29.95 37 30.45 36.09 30.94 35.59 31.86 35.09 30.94 34.17 30.45 35.09 29.95 35.59 29.03" style="fill:#fff8f8;"/><path d="M30.1,59.51a1,1,0,0,0,.31,0,11,11,0,0,0,2.78-1.36,1,1,0,1,0-1.12-1.65,9.06,9.06,0,0,1-2.28,1.12,1,1,0,0,0,.31,2Z" style="fill:#8d6c9f;"/><path d="M25.74,57.91a9,9,0,0,1-6.58-4.49,1,1,0,1,0-1.74,1,11,11,0,0,0,8,5.49h.14a1,1,0,0,0,.14-2Z" style="fill:#8d6c9f;"/><path d="M48,15.24A25,25,0,1,0,12.22,46.48a15,15,0,0,0,28,9.5L41,56a21,21,0,0,0,7-40.76ZM2,25A23,23,0,1,1,25,48,23,23,0,0,1,2,25ZM21.18,60.62A12.89,12.89,0,0,1,14.12,47.5,24.85,24.85,0,0,0,25,50q.66,0,1.32,0a20.94,20.94,0,0,0,11.75,5.82A13,13,0,0,1,21.18,60.62ZM41,54a18.86,18.86,0,0,1-12-4.32A25,25,0,0,0,48.93,17.76,19,19,0,0,1,41,54Z" style="fill:#8d6c9f;"/><path d="M45,25a20,20,0,0,0-6.6-14.85,1,1,0,0,0-1.34,1.48A17.94,17.94,0,1,1,28,7.25a1,1,0,0,0,.33-2A20,20,0,1,0,45,25Z" style="fill:#8d6c9f;"/><path d="M31.6,8.25A18,18,0,0,1,34,9.41a1,1,0,0,0,1-1.73,20,20,0,0,0-2.67-1.29,1,1,0,1,0-.73,1.86Z" style="fill:#8d6c9f;"/><path d="M12.2,28a1,1,0,0,0-1.95.45,15.2,15.2,0,0,0,7.12,9.66,1,1,0,0,0,.5.14,1,1,0,0,0,.51-1.86A13.2,13.2,0,0,1,12.2,28Z" style="fill:#8d6c9f;"/><path d="M24,17h2a2,2,0,0,1,2,2,1,1,0,0,0,2,0,4,4,0,0,0-4-4V13a1,1,0,0,0-2,0v2a4,4,0,0,0-4,4v3a4,4,0,0,0,4,4h2a2,2,0,0,1,2,2v3a2,2,0,0,1-2,2V28a1,1,0,0,0-2,0v5a2,2,0,0,1-2-2,1,1,0,0,0-2,0,4,4,0,0,0,4,4v2a1,1,0,0,0,2,0V35a4,4,0,0,0,4-4V28a4,4,0,0,0-4-4V19a1,1,0,0,0-2,0v5a2,2,0,0,1-2-2V19A2,2,0,0,1,24,17Z" style="fill:#8d6c9f;"/><path d="M55,34H53a1,1,0,0,0,0,2h2a1,1,0,0,0,0-2Z" style="fill:#8d6c9f;"/><path d="M41,46a1,1,0,0,0-1,1v2a1,1,0,0,0,2,0V47A1,1,0,0,0,41,46Z" style="fill:#8d6c9f;"/><path d="M50.19,42.78a1,1,0,0,0-1.41,1.41l1.41,1.41a1,1,0,0,0,1.41-1.41Z" style="fill:#8d6c9f;"/><path d="M52.13,31.51a1,1,0,0,0,.38-.07l1.85-.75a1,1,0,0,0-.75-1.85l-1.85.75a1,1,0,0,0,.38,1.93Z" style="fill:#8d6c9f;"/><path d="M46.42,45.75a1,1,0,1,0-1.85.75l.75,1.85a1,1,0,1,0,1.85-.75Z" style="fill:#8d6c9f;"/><path d="M54.28,39.55l-1.84-.78a1,1,0,1,0-.78,1.84l1.84.78a1,1,0,1,0,.78-1.84Z" style="fill:#8d6c9f;"/><polygon points="35.42 15 36.27 16.56 37.84 17.42 36.27 18.27 35.42 19.84 34.56 18.27 33 17.42 34.56 16.56 35.42 15" style="fill:#fff8f8;"/></svg>
