<?xml version="1.0" encoding="iso-8859-1"?>
<!-- Generator: Adobe Illustrator 21.1.0, SVG Export Plug-In . SVG Version: 6.00 Build 0)  -->
<svg xmlns="http://www.w3.org/2000/svg" xmlns:xlink="http://www.w3.org/1999/xlink" version="1.1" id="Layer_1" x="0px" y="0px" viewBox="0 0 64 64" style="enable-background:new 0 0 64 64;" xml:space="preserve">
<g>
	<path style="fill:#FAEFDE;" d="M53,55H11c-1.105,0-2-0.895-2-2V9c0-3.314,2.686-6,6-6h34c3.314,0,6,2.686,6,6v44   C55,54.105,54.105,55,53,55z"/>
	<path style="fill:#FFF7F0;" d="M49.048,3c2.103,0.008,3.151,2.551,1.664,4.038L48.57,9.18C48.41,9.07,48.21,9,48,9H16   c-0.21,0-0.41,0.07-0.57,0.18l-2.065-2.065C11.885,5.635,12.86,3.016,14.952,3C14.968,3,14.984,3,15,3h34L49.048,3z"/>
	<path style="fill:#C2CDE7;" d="M49,10v28c0,0.55-0.45,1-1,1H16c-0.55,0-1-0.45-1-1V10c0-0.55,0.45-1,1-1h32C48.55,9,49,9.45,49,10z   "/>
	<path style="fill:#FAEFDE;" d="M49,61H15c-1.105,0-2-0.895-2-2v-4h38v4C51,60.105,50.105,61,49,61z"/>
	<polygon style="fill:#D6DFF2;" points="43,9 15,37 15,31 37,9  "/>
	<polygon style="fill:#D6DFF2;" points="34,9 15,28 15,25 31,9  "/>
	<path style="fill:#D6DFF2;" d="M49,10v21l-8,8H17.39L47.4,9H48C48.55,9,49,9.45,49,10z"/>
	<rect x="13" y="55" style="fill:#EFD8BE;" width="39" height="3"/>
	<g>
		<path style="fill:#8D6C9F;" d="M49,2H15c-3.859,0-7,3.14-7,7v44c0,1.654,1.346,3,3,3h1v3c0,1.654,1.346,3,3,3h34    c1.654,0,3-1.346,3-3v-3h1c1.654,0,3-1.346,3-3V9C56,5.14,52.859,2,49,2z M50,59c0,0.551-0.448,1-1,1H15c-0.552,0-1-0.449-1-1v-3    h36V59z M54,53c0,0.551-0.448,1-1,1h-2H13h-2c-0.552,0-1-0.449-1-1V9c0-2.757,2.243-5,5-5h34c2.757,0,5,2.243,5,5V53z"/>
		<path style="fill:#8D6C9F;" d="M48,8H16c-1.103,0-2,0.897-2,2v28c0,1.103,0.897,2,2,2h32c1.103,0,2-0.897,2-2V10    C50,8.897,49.103,8,48,8z M16,38V10h32l0.001,28H16z"/>
		<path style="fill:#8D6C9F;" d="M49,44H35c-0.553,0-1,0.448-1,1s0.447,1,1,1h14c0.553,0,1-0.448,1-1S49.553,44,49,44z"/>
		<path style="fill:#8D6C9F;" d="M15,44c-0.553,0-1,0.448-1,1v2c0,0.552,0.447,1,1,1s1-0.448,1-1v-2C16,44.448,15.553,44,15,44z"/>
		<path style="fill:#8D6C9F;" d="M20,44c-0.553,0-1,0.448-1,1v2c0,0.552,0.447,1,1,1s1-0.448,1-1v-2C21,44.448,20.553,44,20,44z"/>
		<path style="fill:#8D6C9F;" d="M25,44c-0.553,0-1,0.448-1,1v2c0,0.552,0.447,1,1,1s1-0.448,1-1v-2C26,44.448,25.553,44,25,44z"/>
		<path style="fill:#8D6C9F;" d="M26,19v-2c0-0.552-0.447-1-1-1s-1,0.448-1,1v2c0,0.552,0.447,1,1,1S26,19.552,26,19z"/>
		<path style="fill:#8D6C9F;" d="M29,28h3c1.103,0,2-0.897,2-2v-9c0-0.552-0.447-1-1-1s-1,0.448-1,1v9h-3c-0.553,0-1,0.448-1,1    S28.447,28,29,28z"/>
		<path style="fill:#8D6C9F;" d="M39,16c-0.553,0-1,0.448-1,1v2c0,0.552,0.447,1,1,1s1-0.448,1-1v-2C40,16.448,39.553,16,39,16z"/>
		<path style="fill:#8D6C9F;" d="M38.447,30.105c-0.494-0.248-1.095-0.047-1.342,0.447l-0.171,0.342    C36.594,31.577,35.908,32,35.146,32h-6.291c-0.763,0-1.448-0.423-1.789-1.105l-0.171-0.342c-0.248-0.495-0.847-0.695-1.342-0.447    c-0.494,0.247-0.694,0.848-0.447,1.342l0.171,0.342C25.958,33.153,27.329,34,28.854,34h6.291c1.525,0,2.896-0.847,3.578-2.211    l0.171-0.342C39.142,30.953,38.941,30.353,38.447,30.105z"/>
	</g>
</g>
</svg>
