<?xml version="1.0"?>
<svg xmlns="http://www.w3.org/2000/svg" id="Layer_1" data-name="Layer 1" viewBox="0 0 64 64"><title>Icons8 RSL Colored Part 5</title><path d="M17,24V13.38s3.88-11.06,12.63-12A15.46,15.46,0,0,1,43,6.2a14.54,14.54,0,0,1,4.25,9.3,44.2,44.2,0,0,1,0,8.81L41,20.92S42.26,7.13,32.22,7,23,20,23,20Z" style="fill:#f9e3ae;"/><rect x="28.87" y="1.27" width="6.43" height="5.77" style="fill:#f5c872;"/><path d="M54,41A22,22,0,0,1,32,63h-.27A22,22,0,0,1,10,41c0-.74,0-1.48.11-2.2A22,22,0,0,1,54,41Z" style="fill:#c2cde7;"/><path d="M28.16,56.53A5,5,0,0,1,32,61.39v1.32l-.27.28A22,22,0,0,1,10,41.18h1.66A5,5,0,0,1,16.5,45,16.06,16.06,0,0,0,28.16,56.53Z" style="fill:#acb7d0;"/><path d="M35.84,25.24A5,5,0,0,1,32,20.38V19.06l.27-.28A22,22,0,0,1,54,40.59H52.34A5,5,0,0,1,47.5,36.8,16.06,16.06,0,0,0,35.84,25.24Z" style="fill:#ced8ed;"/><path d="M37,38a5,5,0,1,0-8,4v4a3,3,0,0,0,3,3h0a3,3,0,0,0,3-3V42A5,5,0,0,0,37,38Z" style="fill:#8b8e98;"/><path d="M48,24.49V16a16,16,0,0,0-32,0v8.49a23,23,0,1,0,32,0ZM36,2.59A14,14,0,0,1,46,16v6.77a22.83,22.83,0,0,0-4-2.48V16a10,10,0,0,0-6-9.16ZM40,16v3.44a22.94,22.94,0,0,0-16,0V16a8,8,0,0,1,16,0ZM30,2.16a12.6,12.6,0,0,1,4,0v4a10,10,0,0,0-4,0ZM18,16A14,14,0,0,1,28,2.59V6.84A10,10,0,0,0,22,16v4.29a22.83,22.83,0,0,0-4,2.48ZM32,62A21,21,0,0,1,16,27.42a20.47,20.47,0,0,1,2-2.06,21.34,21.34,0,0,1,4-2.82,20.36,20.36,0,0,1,2-1,20.92,20.92,0,0,1,16,0,20.36,20.36,0,0,1,2,1,21.34,21.34,0,0,1,4,2.82,20.47,20.47,0,0,1,2,2.06A21,21,0,0,1,32,62Z" style="fill:#8d6c9f;"/><path d="M16.49,45.07a1,1,0,0,0,.79-1.17,15,15,0,0,1,19-17.27,1,1,0,0,0,.57-1.92A17,17,0,0,0,15.32,44.28a1,1,0,0,0,1,.81Z" style="fill:#8d6c9f;"/><path d="M45.81,31.08a1,1,0,0,0-1.62,1.17,15,15,0,0,1-8.47,23.29,1,1,0,0,0,.49,1.94,17,17,0,0,0,9.6-26.39Z" style="fill:#8d6c9f;"/><path d="M39.94,28.27a15.05,15.05,0,0,1,1.63,1.18,1,1,0,1,0,1.28-1.54A17.07,17.07,0,0,0,41,26.58a1,1,0,1,0-1.06,1.7Z" style="fill:#8d6c9f;"/><path d="M31,55a1,1,0,0,0-1,1v2a1,1,0,0,0,2,0V56A1,1,0,0,0,31,55Z" style="fill:#8d6c9f;"/><path d="M26.55,54.22a1,1,0,0,0-1.28.6l-.68,1.88a1,1,0,0,0,.6,1.28,1,1,0,0,0,.34.06,1,1,0,0,0,.94-.66l.68-1.88A1,1,0,0,0,26.55,54.22Z" style="fill:#8d6c9f;"/><path d="M21.23,52.08l-1.29,1.53a1,1,0,1,0,1.53,1.29l1.29-1.53a1,1,0,1,0-1.53-1.29Z" style="fill:#8d6c9f;"/><path d="M19.74,48.5a1,1,0,0,0-1.37-.37l-1.73,1a1,1,0,0,0,1,1.73l1.73-1A1,1,0,0,0,19.74,48.5Z" style="fill:#8d6c9f;"/><path d="M36,42.45a6,6,0,0,0-.22-9.1A6,6,0,0,0,28,42.45V46a4,4,0,0,0,8,0Zm-1.6-1.27a1,1,0,0,0-.4.8v4a2,2,0,0,1-4,0V42a1,1,0,0,0-.4-.8,4,4,0,0,1,1.53-7.09A4.33,4.33,0,0,1,32,34a3.94,3.94,0,0,1,2.51.9,4,4,0,0,1-.13,6.28Z" style="fill:#8d6c9f;"/></svg>
