<?xml version="1.0"?>
<svg xmlns="http://www.w3.org/2000/svg" id="Layer_1" data-name="Layer 1" viewBox="0 0 64 64"><title>Icons8 RSL Colored Part 10</title><path d="M61,53.3V61a2,2,0,0,1-2,2H5a2,2,0,0,1-2-2V53.3a10,10,0,0,1,5.69-9L26,36H38l17.31,8.28A10,10,0,0,1,61,53.3Z" style="fill:#80a6dd;"/><path d="M61,61h0a2,2,0,0,1-2,2H5a2,2,0,0,1-2-2H3a3,3,0,0,1,3-3H58A3,3,0,0,1,61,61Z" style="fill:#6e91ce;"/><polygon points="13.49 41.9 19.31 39.66 29.4 62.97 22.82 62.97 13.49 41.9" style="fill:#f9dd8f;"/><path d="M19.22,22.19c-.1.55-.16,3.1-.18,3.67A1.33,1.33,0,0,0,18,25.61c-1.07.29-1.47,2.25-.9,4.38.52,2,1.69,3.36,2.7,3.36,1.8,6.07,6.6,12.12,12.23,12.12s10.43-6,12.23-12.12c1,0,2.17-1.4,2.7-3.36.57-2.13.17-4.1-.9-4.38a1.33,1.33,0,0,0-1.07.25c0-.59-.08-3.12-.17-3.64" style="fill:#faefde;"/><path d="M45.19,17.52H19.11l-.84,3.78a1,1,0,0,0,1,1.22h1.25a1,1,0,0,1,.81.41l.11.14A12,12,0,0,0,31.1,28H32.9a12,12,0,0,0,9.69-4.92l.11-.14a1,1,0,0,1,.81-.41h1.32a1,1,0,0,0,1-1.16Z" style="fill:#80a6dd;"/><path d="M45.13,17.19l5.58-5a.87.87,0,0,0-.41-1.51l-2.13-.43A30,30,0,0,1,36.85,5.39L34.3,3.6a4,4,0,0,0-4.59,0L27.15,5.39a30,30,0,0,1-11.32,4.84l-2.13.43a.87.87,0,0,0-.41,1.51l5.58,5L22,18.34a29,29,0,0,0,20,0Z" style="fill:#6e91ce;"/><path d="M48.73,54.44a4,4,0,0,1-1.44,2.78A17.73,17.73,0,0,1,45,58.87H45a17.73,17.73,0,0,1-2.26-1.65,4,4,0,0,1-1.44-2.78L41,50.88a7.11,7.11,0,0,0,4-2,7.11,7.11,0,0,0,4,2Z" style="fill:#f9dd8f;"/><path d="M35.73,12.44a4,4,0,0,1-1.44,2.78A17.73,17.73,0,0,1,32,16.87H32a17.73,17.73,0,0,1-2.26-1.65,4,4,0,0,1-1.44-2.78L28,8.88a7.11,7.11,0,0,0,4-2,7.11,7.11,0,0,0,4,2Z" style="fill:#f9dd8f;"/><path d="M55.75,43.38,43.6,37.57A22.24,22.24,0,0,0,45,34.21c1.22-.46,2.34-2,2.88-4,.74-2.75,0-5.16-1.61-5.6a1.29,1.29,0,0,0-.36-.06c0-.51,0-1-.05-1.38a1.94,1.94,0,0,0,.92-2l-.59-3.64,5.17-4.65a1.87,1.87,0,0,0-.89-3.23l-2.13-.43A28.83,28.83,0,0,1,37.42,4.57L34.87,2.79a5,5,0,0,0-5.73,0L26.58,4.57A28.83,28.83,0,0,1,15.64,9.25l-2.13.43a1.87,1.87,0,0,0-.89,3.23L18,17.77l-.74,3.32a1.95,1.95,0,0,0,.84,2.08c0,.39,0,.84-.06,1.41a1.74,1.74,0,0,0-.37.07c-1.66.44-2.35,2.85-1.61,5.6.54,2,1.66,3.5,2.89,4a22.18,22.18,0,0,0,1.41,3.36L8.25,43.38A11.07,11.07,0,0,0,2,53.3V61a3,3,0,0,0,3,3H59a3,3,0,0,0,3-3V53.3A11.07,11.07,0,0,0,55.75,43.38ZM19.94,21.52a1,1,0,0,0-.55-.31h-.07l.57-2.59,1.78.65A30,30,0,0,0,32,21.11a30,30,0,0,0,10.33-1.83l2-.74.44,2.7a1,1,0,0,0-.16,0,1,1,0,0,0-.51.28h-.6a2,2,0,0,0-1.62.82l-.1.14A11,11,0,0,1,32.9,27H31.1a11,11,0,0,1-8.88-4.51l-.11-.15a2,2,0,0,0-1.61-.82ZM16,11.21a30.81,30.81,0,0,0,11.7-5l2.56-1.79a3,3,0,0,1,3.44,0l2.56,1.79a30.81,30.81,0,0,0,11.7,5l1.88.38L44.6,16.31l-3,1.09a28,28,0,0,1-19.28,0l-3-1.09-5.25-4.73Zm4.7,21.86a1,1,0,0,0-1-.71c-.3,0-1.24-.78-1.74-2.63a6.1,6.1,0,0,1-.23-1.62c0-.93.26-1.49.41-1.53a.58.58,0,0,1,.28.12,1,1,0,0,0,1,0,1,1,0,0,0,.54-.84l0-.69c0-.4,0-1.09.06-1.7h.37l.11.15A13,13,0,0,0,31.1,29H32.9a13,13,0,0,0,10.5-5.33l.1-.14h.38c0,.57,0,1.22.05,1.61s0,.63,0,.78a1,1,0,0,0,1.55.79.53.53,0,0,1,.26-.12c.24.06.69,1.29.19,3.15a5.53,5.53,0,0,1-.95,2c-.33.42-.64.62-.79.62a1,1,0,0,0-.95.71,20.55,20.55,0,0,1-1.47,3.64,16.66,16.66,0,0,1-1,1.74c-2.19,3.43-5.32,6-8.81,6s-6.62-2.6-8.81-6a16.58,16.58,0,0,1-1-1.74A20.55,20.55,0,0,1,20.73,33.07Zm3.18,28.51-9-19.18,3.32-1.59L27.9,62H24A1,1,0,0,0,23.91,61.58ZM4,61V53.3a9.06,9.06,0,0,1,5.12-8.12l4-1.92L21.9,62H5A1,1,0,0,1,4,61Zm56,0a1,1,0,0,1-1,1H30a1,1,0,0,0-.09-.41L20.07,39.94l1.33-.63c2.53,4,6.32,7.17,10.6,7.17s8.07-3.12,10.61-7.17l12.27,5.87A9.06,9.06,0,0,1,60,53.3Z" style="fill:#8d6c9f;"/><path d="M52,56a1,1,0,0,0-1,1v2a1,1,0,0,0,2,0V57A1,1,0,0,0,52,56Z" style="fill:#8d6c9f;"/><path d="M56,57v2a1,1,0,0,0,2,0V57a1,1,0,0,0-2,0Z" style="fill:#8d6c9f;"/><path d="M37,56a1,1,0,0,0-1,1v2a1,1,0,0,0,2,0V57A1,1,0,0,0,37,56Z" style="fill:#8d6c9f;"/><path d="M32,56a1,1,0,0,0-1,1v2a1,1,0,0,0,2,0V57A1,1,0,0,0,32,56Z" style="fill:#8d6c9f;"/><path d="M17,56a1,1,0,0,0-1,1v2a1,1,0,0,0,2,0V57A1,1,0,0,0,17,56Z" style="fill:#8d6c9f;"/><path d="M12,56a1,1,0,0,0-1,1v2a1,1,0,0,0,2,0V57A1,1,0,0,0,12,56Z" style="fill:#8d6c9f;"/><path d="M7,56a1,1,0,0,0-1,1v2a1,1,0,0,0,2,0V57A1,1,0,0,0,7,56Z" style="fill:#8d6c9f;"/><path d="M49.15,49.89a6.14,6.14,0,0,1-3.44-1.72,1,1,0,0,0-1.41,0,6.14,6.14,0,0,1-3.44,1.72A1,1,0,0,0,40,51l.27,3.56A5,5,0,0,0,42.06,58a18,18,0,0,0,2.41,1.75l.2.09a1,1,0,0,0,.32,0,1.14,1.14,0,0,0,.36-.06l.18-.08A18.09,18.09,0,0,0,47.94,58a5,5,0,0,0,1.79-3.47L50,51A1,1,0,0,0,49.15,49.89Zm-1.42,4.47a3,3,0,0,1-1.08,2.09A20.18,20.18,0,0,1,45,57.71a20.09,20.09,0,0,1-1.65-1.26,3,3,0,0,1-1.08-2.09l-.2-2.68A8.1,8.1,0,0,0,45,50.22a8.1,8.1,0,0,0,2.94,1.46Z" style="fill:#8d6c9f;"/><path d="M29.06,16a18,18,0,0,0,2.41,1.75l.2.09a1,1,0,0,0,.32,0,1.14,1.14,0,0,0,.36-.06l.18-.08A18.09,18.09,0,0,0,34.94,16a5,5,0,0,0,1.79-3.47L37,9a1,1,0,0,0-.85-1.06,6.14,6.14,0,0,1-3.44-1.72,1,1,0,0,0-1.41,0,6.14,6.14,0,0,1-3.44,1.72A1,1,0,0,0,27,9l.27,3.56A5,5,0,0,0,29.06,16ZM32,8.22a8.1,8.1,0,0,0,2.94,1.46l-.2,2.68a3,3,0,0,1-1.08,2.09A20.18,20.18,0,0,1,32,15.71a20.09,20.09,0,0,1-1.65-1.26,3,3,0,0,1-1.08-2.09l-.2-2.68A8.1,8.1,0,0,0,32,8.22Z" style="fill:#8d6c9f;"/></svg>
