<?xml version="1.0"?>
<svg xmlns="http://www.w3.org/2000/svg" id="Layer_1" data-name="Layer 1" viewBox="0 0 64 64"><title>Dusk Part 3</title><rect x="37" y="3" width="12" height="42" style="fill:#ed7899;"/><rect x="37" y="3" width="12" height="6" style="fill:#f283a5;"/><rect x="25" y="7" width="12" height="38" style="fill:#85cbf8;"/><rect x="25" y="7" width="12" height="6" style="fill:#9fddff;"/><rect x="49" y="13" width="8" height="33" style="fill:#72caaf;"/><rect x="49" y="13" width="8" height="6" style="fill:#88d7b6;"/><rect x="49" y="13" width="8" height="6" style="fill:#88d7b6;"/><rect x="11.19" y="12.32" width="10.18" height="31.28" transform="translate(7.97 -3.31) rotate(15.33)" style="fill:#f9e3ae;"/><rect x="14.84" y="12.81" width="10.18" height="3.65" transform="translate(4.58 -4.75) rotate(15.33)" style="fill:#faefde;"/><rect x="9" y="55" width="4" height="8" style="fill:#f9dd8f;"/><rect x="51" y="55" width="4" height="8" style="fill:#f9dd8f;"/><rect x="1.5" y="45.5" width="61" height="9" style="fill:#cda1a7;"/><path d="M5.5,50h53a4,4,0,0,1,4,4v.5a0,0,0,0,1,0,0H1.5a0,0,0,0,1,0,0V54A4,4,0,0,1,5.5,50Z" style="fill:#c4939c;"/><path d="M12,48a1,1,0,0,0-1,1v2a1,1,0,0,0,2,0V49A1,1,0,0,0,12,48Z" style="fill:#8d6c9f;"/><path d="M7,48a1,1,0,0,0-1,1v2a1,1,0,0,0,2,0V49A1,1,0,0,0,7,48Z" style="fill:#8d6c9f;"/><path d="M17,48a1,1,0,0,0-1,1v2a1,1,0,1,0,2,0V49A1,1,0,0,0,17,48Z" style="fill:#8d6c9f;"/><path d="M22,48a1,1,0,0,0-1,1v2a1,1,0,0,0,2,0V49A1,1,0,0,0,22,48Z" style="fill:#8d6c9f;"/><path d="M27,48a1,1,0,0,0-1,1v2a1,1,0,0,0,2,0V49A1,1,0,0,0,27,48Z" style="fill:#8d6c9f;"/><path d="M32,48a1,1,0,0,0-1,1v2a1,1,0,1,0,2,0V49A1,1,0,0,0,32,48Z" style="fill:#8d6c9f;"/><path d="M37,48a1,1,0,0,0-1,1v2a1,1,0,0,0,2,0V49A1,1,0,0,0,37,48Z" style="fill:#8d6c9f;"/><path d="M42,48a1,1,0,0,0-1,1v2a1,1,0,0,0,2,0V49A1,1,0,0,0,42,48Z" style="fill:#8d6c9f;"/><path d="M47,48a1,1,0,0,0-1,1v2a1,1,0,0,0,2,0V49A1,1,0,0,0,47,48Z" style="fill:#8d6c9f;"/><path d="M57,48a1,1,0,0,0-1,1v2a1,1,0,0,0,2,0V49A1,1,0,0,0,57,48Z" style="fill:#8d6c9f;"/><path d="M52,48a1,1,0,0,0-1,1v2a1,1,0,0,0,2,0V49A1,1,0,0,0,52,48Z" style="fill:#8d6c9f;"/><path d="M61,44H58V15a3,3,0,0,0-3-3H51a3,3,0,0,0-1,.18V5a3,3,0,0,0-3-3H39a3,3,0,0,0-3,3V6.18A3,3,0,0,0,35,6H27a3,3,0,0,0-3,3v3.66a3,3,0,0,0-.7-.3L17.5,10.8a3,3,0,0,0-3.67,2.12L6.58,40A3,3,0,0,0,8.7,43.64L10,44H3a3,3,0,0,0-3,3v6a3,3,0,0,0,3,3H8v5a3,3,0,0,0,6,0V56H50v5a3,3,0,0,0,6,0V56h5a3,3,0,0,0,3-3V47A3,3,0,0,0,61,44ZM51,14h4a1,1,0,0,1,1,1V44H50V42h4a1,1,0,0,0,0-2H50V20h4a1,1,0,0,0,0-2H50V15A1,1,0,0,1,51,14ZM38,5a1,1,0,0,1,1-1h8a1,1,0,0,1,1,1V44H38V5ZM26,9a1,1,0,0,1,1-1h8a1,1,0,0,1,1,1V44H26ZM8.51,40.49l7.25-27A1,1,0,0,1,17,12.73l5.8,1.55a1,1,0,0,1,.71,1.23l-7.25,27a1,1,0,0,1-1.22.71l-5.8-1.55A1,1,0,0,1,8.51,40.49Zm9.66,2.59L24,21.33V44H17.73A3,3,0,0,0,18.17,43.08ZM12,61a1,1,0,0,1-2,0V56h2Zm42,0a1,1,0,0,1-2,0V56h2Zm8-8a1,1,0,0,1-1,1H3a1,1,0,0,1-1-1V47a1,1,0,0,1,1-1H61a1,1,0,0,1,1,1Z" style="fill:#8d6c9f;"/><path d="M33,12H29a1,1,0,0,0,0,2h4a1,1,0,0,0,0-2Z" style="fill:#8d6c9f;"/><path d="M41,10h4a1,1,0,0,0,0-2H41a1,1,0,0,0,0,2Z" style="fill:#8d6c9f;"/><path d="M41,42h4a1,1,0,0,0,0-2H41a1,1,0,0,0,0,2Z" style="fill:#8d6c9f;"/><path d="M33,40H29a1,1,0,0,0,0,2h4a1,1,0,0,0,0-2Z" style="fill:#8d6c9f;"/><path d="M16.92,16.86l3.86,1A1,1,0,1,0,21.3,16l-3.86-1a1,1,0,0,0-.52,1.93Z" style="fill:#8d6c9f;"/><path d="M15.79,40.37a1,1,0,0,0-.71-1.22l-3.86-1A1,1,0,1,0,10.7,40l3.86,1a1,1,0,0,0,1.22-.71Z" style="fill:#8d6c9f;"/></svg>
