<?xml version="1.0"?>
<svg xmlns="http://www.w3.org/2000/svg" id="Layer_1" data-name="Layer 1" viewBox="0 0 64 64"><title>Icons8 RSL Colored Part 10</title><path d="M54,25.26V36.74a2,2,0,0,1-1.13,1.82l-.06,0a2,2,0,0,0-1,1.27L48.12,53.54a2,2,0,0,1-.44.81l-7.08,8a2,2,0,0,1-1.5.67H24.9a2,2,0,0,1-1.5-.67l-7.08-8a2,2,0,0,1-.44-.81l-.51-1.91-1.26-4.74-.85-3.15-1-3.87s0,0,0-.07a1.91,1.91,0,0,0-1-1.2l-.06,0A2,2,0,0,1,10,36.74V25.26a2,2,0,0,1,1.13-1.82A2,2,0,0,0,12.19,22l1.89-9.46A9.29,9.29,0,0,1,19.23,6l.85-.4a28,28,0,0,1,23.84,0l.85.4a9.29,9.29,0,0,1,5.15,6.57l.75,3.75.67,3.33L51.81,22a2,2,0,0,0,1.06,1.4A2,2,0,0,1,54,25.26Z" style="fill:#f9dd8f;"/><path d="M14.05,15.89l2.3,14.27S24.18,33.07,27,33s14.78,1.36,21.29-3.72l2.07-14.72L43.3,8,21.64,7.51Z" style="fill:#f9e3ae;"/><path d="M50.36,14.53s-5.42-2.47-8.85-3.75c-1.57-.59-2.72-.93-2.75-.67s-.12,1.83-.35,3.77C38,17.7,37,23,35,23s-4.32,0-5.75,0H28s-.41.7-1.17-3.58c0,0,0,0,0-.06-.2-1.12-.39-2.27-.55-3.37-.27-1.71-.48-3.29-.63-4.37-.12-.91-.19-1.47-.19-1.47l-2.31.07L13.59,15l.26-1.41S14.09,4,32,3q1.26-.08,2.4-.06A25.91,25.91,0,0,1,39,3.32a17.07,17.07,0,0,1,3.13.87,13.45,13.45,0,0,1,3.84,2.16A12,12,0,0,1,50.36,14.53Z" style="fill:#ed7899;"/><polygon points="12.23 39.87 19.96 48.72 20.29 53.05 22.1 54.34 25.32 50.91 38.88 51.04 41.9 54.72 44.11 52.72 44.43 47.56 51.77 39.87 49.08 49.56 48.29 54.14 39.53 63 23.97 63 16 53.85 12.23 39.87" style="fill:#ed7899;"/><path d="M40,63H24V60a2,2,0,0,1,2-2H38a2,2,0,0,1,2,2Z" style="fill:#e0678f;"/><path d="M47,31l1,1.43a2,2,0,0,1-.46,2.71L46.07,36.2a4,4,0,0,1-2.4.8H38.24a2,2,0,0,1-1.79-1.11L35,33" style="fill:#c5e4fa;"/><path d="M16.29,31l-1,1.43a2,2,0,0,0,.46,2.71l1.42,1.06a4,4,0,0,0,2.4.8h5.43a2,2,0,0,0,1.79-1.11L28.29,33" style="fill:#c5e4fa;"/><path d="M53.32,22.54a1,1,0,0,1-.53-.7L50.9,12.38a10.31,10.31,0,0,0-5.7-7.28l-.85-.4a28.91,28.91,0,0,0-24.7,0l-.85.4a10.31,10.31,0,0,0-5.7,7.28l-1.89,9.46a1,1,0,0,1-.53.7A3,3,0,0,0,9,25.26V36.74a3,3,0,0,0,1.75,2.75,1,1,0,0,1,.52.64L14.91,53.8A3,3,0,0,0,15.57,55l7.09,8a3,3,0,0,0,2.24,1H39.1a3,3,0,0,0,2.24-1l7.09-8a3,3,0,0,0,.66-1.22l3.65-13.67a1,1,0,0,1,.59-.67A3,3,0,0,0,55,36.74V25.26A3,3,0,0,0,53.32,22.54ZM46.48,32l.64,1a1,1,0,0,1-.23,1.35L45.47,35.4a3,3,0,0,1-1.8.6H38.24a1,1,0,0,1-.89-.55l-.84-1.68A55,55,0,0,0,46.48,32Zm.11-2.45a.59.59,0,0,1-.42.47,53,53,0,0,1-28.32,0,.59.59,0,0,1-.42-.46L15.21,16a10.33,10.33,0,0,1,3.59-2.85A30.71,30.71,0,0,1,24.67,11l1.14,10.28a3,3,0,0,0,3,2.67h6.42a3,3,0,0,0,3-2.67L39.32,11a30.93,30.93,0,0,1,5.87,2.07,10.35,10.35,0,0,1,3.6,2.83ZM16.17,33,17,31.81a2.5,2.5,0,0,0,.36.16,55,55,0,0,0,9.51,1.75l-.87,1.73a1,1,0,0,1-.89.55H19.62a3,3,0,0,1-1.8-.6L16.4,34.33A1,1,0,0,1,16.17,33ZM19.65,6.92l.85-.4a26.92,26.92,0,0,1,23,0l.85.4a8.3,8.3,0,0,1,4.59,5.86l.11.55a12.3,12.3,0,0,0-3-2,32.93,32.93,0,0,0-6.25-2.2,2,2,0,0,0-1.6.31,2,2,0,0,0-.85,1.43L36.2,21.11a1,1,0,0,1-1,.89H28.79a1,1,0,0,1-1-.89L26.66,10.83a2,2,0,0,0-.85-1.43,2,2,0,0,0-1.6-.31,33.22,33.22,0,0,0-6.27,2.2,12.29,12.29,0,0,0-3,2l.11-.55A8.3,8.3,0,0,1,19.65,6.92Zm27.5,46.37a1,1,0,0,1-.22.41l-7.09,8a1,1,0,0,1-.75.34H24.9a1,1,0,0,1-.75-.34l-7.09-8a1,1,0,0,1-.22-.41L14.05,42.81l4.19,4.71a3,3,0,0,1,.76,2v2.65a3,3,0,0,0,.88,2.12l.6.6a2,2,0,0,0,3-.21L25.2,52.4A1,1,0,0,1,26,52H38a1,1,0,0,1,.8.4l1.71,2.28a2,2,0,0,0,1.46.79h.14a2,2,0,0,0,1.41-.59l.6-.6A3,3,0,0,0,45,52.17V49.52a3,3,0,0,1,.76-2l4.19-4.71ZM53,36.74a1.06,1.06,0,0,1-.64,1,6,6,0,0,0-1.11.63l-7,7.86A5,5,0,0,0,43,49.52v2.65a1,1,0,0,1-.29.71l-.6.6L40.4,51.2A3,3,0,0,0,38,50H26a3,3,0,0,0-2.4,1.2l-1.71,2.28-.6-.6a1,1,0,0,1-.29-.71V49.52a5,5,0,0,0-1.26-3.32l-7-7.86a6.64,6.64,0,0,0-1.18-.67,1,1,0,0,1-.57-.93V25.26a1,1,0,0,1,.57-.93,3,3,0,0,0,1.6-2.09l.57-2.84,1.71,10.51a2.52,2.52,0,0,0,.13.41,1,1,0,0,0-.12.12l-1,1.43a3,3,0,0,0,.7,4.06L16.62,37a5,5,0,0,0,3,1h5.43a3,3,0,0,0,2.68-1.66L29,33.87c1,.06,2,.09,3,.09.78,0,1.56,0,2.34-.06l1.22,2.43A3,3,0,0,0,38.24,38h5.43a5,5,0,0,0,3-1l1.42-1.06a3,3,0,0,0,.7-4.06l-.65-1a2.58,2.58,0,0,0,.43-1l1.7-10.5.57,2.84a3,3,0,0,0,1.6,2.09,1,1,0,0,1,.57.93Z" style="fill:#8d6c9f;"/><path d="M31,19h2a1,1,0,0,0,0-2H31a1,1,0,0,0,0,2Z" style="fill:#8d6c9f;"/><path d="M31,14h2a1,1,0,0,0,0-2H31a1,1,0,0,0,0,2Z" style="fill:#8d6c9f;"/><path d="M31,9h2a1,1,0,0,0,0-2H31a1,1,0,0,0,0,2Z" style="fill:#8d6c9f;"/><path d="M32,56a1,1,0,0,0-1,1v2a1,1,0,0,0,2,0V57A1,1,0,0,0,32,56Z" style="fill:#8d6c9f;"/><path d="M37,56a1,1,0,0,0-1,1v2a1,1,0,0,0,2,0V57A1,1,0,0,0,37,56Z" style="fill:#8d6c9f;"/><path d="M27,56a1,1,0,0,0-1,1v2a1,1,0,0,0,2,0V57A1,1,0,0,0,27,56Z" style="fill:#8d6c9f;"/></svg>
