<?xml version="1.0"?>
<svg xmlns="http://www.w3.org/2000/svg" id="Layer_1" data-name="Layer 1" viewBox="0 0 64 64"><title>Icons8 RSL Colored Part 9</title><path d="M32.54,29.45h0c-.23,0-1-.61-1.37-2.07s0-2.44.14-2.49c0,0,1.42-.25,1.43-.53a9.59,9.59,0,0,1,.13-1.22,4.54,4.54,0,0,0-.06-1.29,16.72,16.72,0,0,1-.1-4.06c.25-2.52,1.73-4,4-4a.79.79,0,0,0,.47-.16,9.52,9.52,0,0,1,5-1.42H43c4.78,0,8.24,2.45,9.66,6.77-.54-.06-.36.32-.75.69s-1.33.52-1,1.5a9.55,9.55,0,0,1,.71,3.21c0,.28,1.41-.22,1.43-.22a5,5,0,0,1,.14,3.23c-.39,1.45-1.13,2.07-1.36,2.07a.81.81,0,0,0-.76.56,16.22,16.22,0,0,1-3.38,6.13C51,38,62,46,62,46V57H53S41.45,40,41,40c-4.08,0-6.37-5.52-7.7-10A.79.79,0,0,0,32.54,29.45Z" style="fill:#faefde;"/><path d="M63,50.75v4.67a2,2,0,0,1-2,2H13V50.75a11,11,0,0,1,5.32-9.42l10-6.06c2.55,3.21,5.91,5.5,9.63,5.5s7.08-2.29,9.63-5.5l10,6.06A11,11,0,0,1,63,50.75Z" style="fill:#ed7899;"/><path d="M53,53.75v6.67H3V53.75a11,11,0,0,1,5.32-9.42l10-6.06c2.55,3.21,5.91,5.5,9.63,5.5s7.08-2.29,9.63-5.5l10,6.06A11,11,0,0,1,53,53.75Z" style="fill:#c2cde7;"/><rect x="17" y="38" width="22" height="13" style="fill:#d6dff2;"/><path d="M49,56H7a4,4,0,0,0-4,4H3a1,1,0,0,0,1,1H52a1,1,0,0,0,1-1h0A4,4,0,0,0,49,56Z" style="fill:#acb7d0;"/><path d="M15.07,30.13h0c-.31,0-1.31-.82-1.83-2.77s-.05-3.27.19-3.33c0,0,1.9-.33,1.92-.71a12.86,12.86,0,0,1,.18-1.63,6.09,6.09,0,0,0-.08-1.73,22.42,22.42,0,0,1-.13-5.44c.34-3.38,2.32-5.39,5.31-5.39a1.06,1.06,0,0,0,.63-.21A12.77,12.77,0,0,1,28,7h1.06c6.42,0,11,3.28,12.95,9.07-.73-.08-.49.43-1,.93s-1.78.7-1.3,2a12.8,12.8,0,0,1,1,4.31c0,.38,1.9-.29,1.92-.29.26.09.72,2.37.19,4.33s-1.52,2.77-1.83,2.77a1.09,1.09,0,0,0-1,.76c-1.78,6-6.44,12.05-11.92,12.05S17.86,36.87,16.08,30.88A1.06,1.06,0,0,0,15.07,30.13Z" style="fill:#faefde;"/><path d="M41.87,17.15a.77.77,0,0,1-.87-.76V14.75C41,7.71,36,2,29.86,2h-.05a2.13,2.13,0,0,0-3.61,0h-.05C20,2,15,7.71,15,14.75v1.64a.77.77,0,0,1-.87.76,1,1,0,0,0-1.13,1v2a1,1,0,0,0,.87,1l3.56.47a80,80,0,0,0,21.15,0l3.56-.47a1,1,0,0,0,.87-1v-2A1,1,0,0,0,41.87,17.15Z" style="fill:#f9e3ae;"/><path d="M25,14l.86-11A2.15,2.15,0,0,1,28,1h0a2.15,2.15,0,0,1,2.14,2l.54,7.62" style="fill:#faefde;"/><path d="M42.58,21.5,28,22.5l-14.79-1V17l4,.54a80,80,0,0,0,21.59,0L42.58,17Z" style="fill:#f6d397;"/><path d="M41,23.75c1.09-.07,8-.38,9.09-.53l2.1-.2a.72.72,0,0,0,.62-.71V20.89a.72.72,0,0,0-.81-.71h0a15,15,0,0,1-.72-3.12c-.59-4.4-3.91-7.77-7.92-7.77h0a1.53,1.53,0,0,0-2.6,0h0" style="fill:#f6d397;"/><polygon points="17 51 11 51 11 42 17 40 17 51" style="fill:#f9e3ae;"/><polygon points="39 51 45 51 45 42 39 40 39 51" style="fill:#f9e3ae;"/><path d="M59,42.21,49,35.78a16.46,16.46,0,0,0,2.61-4.9,4.41,4.41,0,0,0,2.12-3,5.66,5.66,0,0,0,.13-2.53,2.58,2.58,0,0,0-.81-1.49l0-.14a1.72,1.72,0,0,0,.74-1.41V20.89a1.72,1.72,0,0,0-1-1.58,15.1,15.1,0,0,1-.49-2.38c-.63-4.75-4.22-8.37-8.47-8.63a2.53,2.53,0,0,0-3.37-.17A12.08,12.08,0,0,0,30.3,1a3.1,3.1,0,0,0-4.6,0C19.21,1.29,14,7.34,14,14.75V15c0,.41-.07.81-.08,1.18a2,2,0,0,0-1.92,2v2a2,2,0,0,0,1.74,2l.21,0-.24,0c-1.65.44-2.34,2.85-1.6,5.61.54,2,1.66,3.5,2.88,4a23.1,23.1,0,0,0,2.72,5.6L8.49,42.67a13,13,0,0,0-6.42,10A1,1,0,0,0,2,53v6a3,3,0,0,0,3,3H51a3,3,0,0,0,3-3V58h7a3,3,0,0,0,3-3V51.44A11,11,0,0,0,59,42.21ZM16,14.75c0-6,3.86-10.9,8.85-11.64L24.14,13A1,1,0,0,0,25.07,14h.07a1,1,0,0,0,1-.93l.72-10a1.15,1.15,0,0,1,2.29,0l.47,6.63a1,1,0,0,0,2-.14l-.46-6.44c5,.74,8.85,5.67,8.85,11.64v1.64h0l-1.56.21-1.31.16a1,1,0,0,0,.11,2h.12l1.35-.17L42,18.14v2l-3.56.47a79,79,0,0,1-20.88,0L14,20.12v-2l3.3.44,2.05.25h.11a1,1,0,0,0,.1-2l-2-.24L16,16.39h0Zm-.23,15.13h0c-.29,0-1.24-.78-1.73-2.62s-.05-3.09.18-3.15a.6.6,0,0,1,.27.12A1,1,0,0,0,16,23.43c0-.34.07-.67.11-1l1.15.15A81,81,0,0,0,28,23.29a81,81,0,0,0,10.71-.71l1.18-.16c0,.32.07.65.09,1a1,1,0,0,0,1.54.79.65.65,0,0,1,.27-.12c.24.08.68,1.3.18,3.15s-1.44,2.62-1.73,2.62h0a1,1,0,0,0-1,.72C37.59,36.26,33.18,42,28,42s-9.59-5.74-11.27-11.4A1,1,0,0,0,15.77,29.88ZM44,43s0,0,0,0v6a1,1,0,0,1-1,1H40V40.63ZM28,44c3.5,0,6.66-2.09,9.09-5.06l.91.53V50H18V39.47l.91-.53C21.34,41.91,24.5,44,28,44ZM13,50a1,1,0,0,1-1-1V43s0,0,0,0l4-2.32V50Zm39,9a1,1,0,0,1-1,1H5a1,1,0,0,1-1-1V53.92A11,11,0,0,1,9.49,44.4l.51-.3V49a3,3,0,0,0,3,3H43a3,3,0,0,0,3-3V44.1l.51.3A11,11,0,0,1,52,53.92Zm10-4a1,1,0,0,1-1,1H54V54a1,1,0,0,0,1-1V51a1,1,0,0,0-1-1,1,1,0,0,0-.56.19,13,13,0,0,0-5.93-7.52L38.3,37.33A23.11,23.11,0,0,0,41,31.73c1.23-.46,2.35-2,2.88-4,.74-2.75,0-5.16-1.6-5.61l-.24,0,.21,0a2,2,0,0,0,1.74-2v-2a2,2,0,0,0-2-2V14.75a15.29,15.29,0,0,0-.72-4.61,1,1,0,0,0,.34-.32.55.55,0,0,1,.91,0,1.06,1.06,0,0,0,.88.46c3.43,0,6.41,3,6.93,6.91a15.76,15.76,0,0,0,.77,3.33,1,1,0,0,0,.75.64V22L50,22.23c-1.06.14-2.14.25-3.2.32a1,1,0,0,0,.07,2h.07c1.11-.08,2.23-.19,3.33-.34l.81-.11a1.21,1.21,0,0,0,.76,1.32,2.89,2.89,0,0,1,0,1.95,2.86,2.86,0,0,1-1,1.68h0a1,1,0,0,0-1,.72c-1,3.27-3.09,6.16-5.4,7.37a1,1,0,1,0,.92,1.77,10.23,10.23,0,0,0,2.23-1.63l10.22,6.61A9,9,0,0,1,62,51.44Z" style="fill:#8d6c9f;"/><path d="M58,51v2a1,1,0,0,0,2,0V51a1,1,0,0,0-2,0Z" style="fill:#8d6c9f;"/><path d="M43,54a1,1,0,0,0-1,1v2a1,1,0,0,0,2,0V55A1,1,0,0,0,43,54Z" style="fill:#8d6c9f;"/><path d="M48,54a1,1,0,0,0-1,1v2a1,1,0,0,0,2,0V55A1,1,0,0,0,48,54Z" style="fill:#8d6c9f;"/><path d="M38,54a1,1,0,0,0-1,1v2a1,1,0,0,0,2,0V55A1,1,0,0,0,38,54Z" style="fill:#8d6c9f;"/><path d="M33,54a1,1,0,0,0-1,1v2a1,1,0,0,0,2,0V55A1,1,0,0,0,33,54Z" style="fill:#8d6c9f;"/><path d="M28,54a1,1,0,0,0-1,1v2a1,1,0,0,0,2,0V55A1,1,0,0,0,28,54Z" style="fill:#8d6c9f;"/><path d="M23,54a1,1,0,0,0-1,1v2a1,1,0,0,0,2,0V55A1,1,0,0,0,23,54Z" style="fill:#8d6c9f;"/><path d="M18,54a1,1,0,0,0-1,1v2a1,1,0,0,0,2,0V55A1,1,0,0,0,18,54Z" style="fill:#8d6c9f;"/><path d="M13,54a1,1,0,0,0-1,1v2a1,1,0,0,0,2,0V55A1,1,0,0,0,13,54Z" style="fill:#8d6c9f;"/><path d="M8,54a1,1,0,0,0-1,1v2a1,1,0,0,0,2,0V55A1,1,0,0,0,8,54Z" style="fill:#8d6c9f;"/></svg>
