<?xml version="1.0"?>
<svg xmlns="http://www.w3.org/2000/svg" id="Layer_1" data-name="Layer 1" viewBox="0 0 64 64"><title>Dusk Part 3</title><path d="M61,57.38a1,1,0,0,1-1,1H4a1,1,0,0,1-1-1v-8A9.37,9.37,0,0,1,8.3,41l14.07-6.73c2.55,3.21,5.91,5.5,9.63,5.5s7.08-2.29,9.63-5.5L55.7,41A9.37,9.37,0,0,1,61,49.41Z" style="fill:#72caaf;"/><path d="M32,43c4.1,0,7.82-2.12,10.57-5.56a2,2,0,0,0-.7-3.06l-.23-.11c-2.55,3.21-5.91,5.5-9.63,5.5s-7.08-2.29-9.63-5.5l-.23.11a2,2,0,0,0-.7,3.06C24.18,40.88,27.9,43,32,43Z" style="fill:#7dd8ba;"/><path d="M57,54H7a4,4,0,0,0-4,4H3a1,1,0,0,0,1,1H60a1,1,0,0,0,1-1h0A4,4,0,0,0,57,54Z" style="fill:#66bfa1;"/><path d="M19.07,26.13h0c-.31,0-1.31-.82-1.83-2.77s-.05-3.27.19-3.33c0,0,1.9-.33,1.92-.71a12.86,12.86,0,0,1,.18-1.63,6.09,6.09,0,0,0-.08-1.73,22.42,22.42,0,0,1-.13-5.44c.34-3.38,2.32-5.39,5.31-5.39a1.06,1.06,0,0,0,.63-.21A12.77,12.77,0,0,1,32,3h1.06c6.42,0,11,3.28,12.95,9.07-.73-.08-.49.43-1,.93s-1.78.7-1.3,2a12.8,12.8,0,0,1,1,4.31c0,.38,1.9-.29,1.92-.29.26.09.72,2.37.19,4.33A12.63,12.63,0,0,1,45,27s-2.88,4.26-3.42,5.14c-2.33,3.83-5.76,6.8-9.58,6.8-5.47,0-10.14-6.06-11.92-12.05A1.06,1.06,0,0,0,19.07,26.13Z" style="fill:#faefde;"/><path d="M19.45,16A7.47,7.47,0,0,0,26,11c3,1,4,4,18,3,1.39-.1,1.6.39,2,0s-.72-2,0-1.93C44.11,6.28,39.47,3,33.06,3H32a12.77,12.77,0,0,0-6.75,1.9,1.06,1.06,0,0,1-.63.21c-3,0-5,2-5.31,5.39a22.42,22.42,0,0,0,.13,5.44Z" style="fill:#8b8e98;"/><rect x="27" y="49" width="10" height="13" style="fill:#f9e3ae;"/><path d="M42,52a1,1,0,0,0-1,1v2a1,1,0,0,0,2,0V53A1,1,0,0,0,42,52Z" style="fill:#8d6c9f;"/><path d="M47,52a1,1,0,0,0-1,1v2a1,1,0,0,0,2,0V53A1,1,0,0,0,47,52Z" style="fill:#8d6c9f;"/><path d="M56,53v2a1,1,0,0,0,2,0V53a1,1,0,0,0-2,0Z" style="fill:#8d6c9f;"/><path d="M52,52a1,1,0,0,0-1,1v2a1,1,0,0,0,2,0V53A1,1,0,0,0,52,52Z" style="fill:#8d6c9f;"/><path d="M22,52a1,1,0,0,0-1,1v2a1,1,0,0,0,2,0V53A1,1,0,0,0,22,52Z" style="fill:#8d6c9f;"/><path d="M17,52a1,1,0,0,0-1,1v2a1,1,0,0,0,2,0V53A1,1,0,0,0,17,52Z" style="fill:#8d6c9f;"/><path d="M12,52a1,1,0,0,0-1,1v2a1,1,0,0,0,2,0V53A1,1,0,0,0,12,52Z" style="fill:#8d6c9f;"/><path d="M7,52a1,1,0,0,0-1,1v2a1,1,0,0,0,2,0V53A1,1,0,0,0,7,52Z" style="fill:#8d6c9f;"/><path d="M27.92,12.88A21.12,21.12,0,0,0,37.11,15h2.55a1,1,0,0,0,0-2H37.11a19.11,19.11,0,0,1-8.32-1.92l-1.56-.76a2,2,0,0,0-2.55.7l-1.6,2.43a1,1,0,0,0,1.67,1.1l1.6-2.43Z" style="fill:#8d6c9f;"/><path d="M55.75,39.38,42.48,33A23.13,23.13,0,0,0,45,27.73c1.23-.46,2.35-2,2.88-4,.74-2.75,0-5.16-1.6-5.61h0a2,2,0,0,0-.43-.06,15.29,15.29,0,0,0-.92-3.44l0-.11a5.29,5.29,0,0,1,1.38.36,1,1,0,0,0,1.36-1.14C46,6.41,40.56,2,33,2H32a14.59,14.59,0,0,0-7.31,2C21,4.14,18.42,6.76,18,10.9a23,23,0,0,0,.13,5.6,7,7,0,0,1,.09,1q0,.28-.09.56a2,2,0,0,0-.44.06c-1.65.44-2.34,2.85-1.6,5.61.54,2,1.66,3.5,2.88,4A23.13,23.13,0,0,0,21.52,33L8.25,39.38A11.06,11.06,0,0,0,2,49.3V57a3,3,0,0,0,3,3H26v1a2,2,0,0,0,2,2h8a2,2,0,0,0,2-2V60H59a3,3,0,0,0,3-3V49.3A11.06,11.06,0,0,0,55.75,39.38Zm-36-13.5h0c-.29,0-1.24-.78-1.73-2.62s-.05-3.09.18-3.15a.6.6,0,0,1,.27.12A1,1,0,0,0,20,19.43a12.19,12.19,0,0,1,.17-1.54,5.77,5.77,0,0,0-.08-1.64A21.21,21.21,0,0,1,20,11.1C20.31,7.91,22.19,6,25,6a1,1,0,0,0,.6-.2A12.08,12.08,0,0,1,32,4h1c6.07,0,10.45,3.1,12.25,8.58a2.3,2.3,0,0,0-1.9.48,2,2,0,0,0-.29,2.3,12.1,12.1,0,0,1,.9,4.07,1,1,0,0,0,1.54.79.65.65,0,0,1,.27-.12c.24.08.68,1.3.18,3.15s-1.44,2.62-1.73,2.62h0a1,1,0,0,0-1,.72C41.59,32.26,37.18,38,32,38s-9.59-5.74-11.28-11.4A1,1,0,0,0,19.77,25.88ZM32,40c3.6,0,6.84-2.21,9.3-5.31l2.52,1.21L34.56,48H29.44L20.18,35.89l2.52-1.21C25.16,37.79,28.4,40,32,40ZM5,58a1,1,0,0,1-1-1V49.3a9,9,0,0,1,5.12-8.12l9.22-4.41,8.76,11.45A2,2,0,0,0,26,50v8Zm31,3H28V50h.45l1.71,2.23A2,2,0,1,0,32,51l-.25,0L31,50h5Zm24-4a1,1,0,0,1-1,1H38V50a2,2,0,0,0-1.09-1.77l8.76-11.45,9.22,4.41A9,9,0,0,1,60,49.3Z" style="fill:#8d6c9f;"/></svg>
