<?xml version="1.0"?>
<svg xmlns="http://www.w3.org/2000/svg" id="Layer_1" data-name="Layer 1" viewBox="0 0 64 64"><title>Dusk Part 3</title><rect x="45" y="23" width="6" height="6" style="fill:#ced8ed;"/><rect x="45" y="28" width="14" height="35" style="fill:#c2cde7;"/><rect x="3" y="33" width="15" height="4" rx="2" ry="2" style="fill:#f9dd8f;"/><rect x="17" y="11" width="28" height="52" style="fill:#85cbf8;"/><rect x="5" y="37" width="12" height="26" style="fill:#cda1a7;"/><rect x="17" y="11" width="6" height="52" style="fill:#9fddff;"/><rect x="31" y="11" width="14" height="52" style="fill:#7bbeeb;"/><rect x="45" y="57" width="14" height="6" style="fill:#b5c4e0;"/><rect x="9" y="57" width="4" height="6" style="fill:#bbdef9;"/><path d="M30,28h2a2,2,0,0,1,2,2,1,1,0,0,0,2,0,4,4,0,0,0-4-4V25a1,1,0,0,0-2,0v1a4,4,0,0,0-4,4v1a4,4,0,0,0,4,4h2a2,2,0,0,1,2,2v1a2,2,0,0,1-2,2V37a1,1,0,0,0-2,0v3a2,2,0,0,1-2-2,1,1,0,0,0-2,0,4,4,0,0,0,4,4v1a1,1,0,0,0,2,0V42a4,4,0,0,0,4-4V37a4,4,0,0,0-4-4V30a1,1,0,0,0-2,0v3a2,2,0,0,1-2-2V30A2,2,0,0,1,30,28Z" style="fill:#fff;"/><path d="M51,46h2a1,1,0,0,0,0-2H51a1,1,0,0,0,0,2Z" style="fill:#8d6c9f;"/><path d="M53,48H51a1,1,0,0,0,0,2h2a1,1,0,0,0,0-2Z" style="fill:#8d6c9f;"/><path d="M53,52H51a1,1,0,0,0,0,2h2a1,1,0,0,0,0-2Z" style="fill:#8d6c9f;"/><path d="M53,56H51a1,1,0,0,0,0,2h2a1,1,0,0,0,0-2Z" style="fill:#8d6c9f;"/><path d="M10,42h2a1,1,0,0,0,0-2H10a1,1,0,0,0,0,2Z" style="fill:#8d6c9f;"/><path d="M10,46h2a1,1,0,0,0,0-2H10a1,1,0,0,0,0,2Z" style="fill:#8d6c9f;"/><path d="M10,50h2a1,1,0,0,0,0-2H10a1,1,0,0,0,0,2Z" style="fill:#8d6c9f;"/><path d="M10,54h2a1,1,0,0,0,0-2H10a1,1,0,0,0,0,2Z" style="fill:#8d6c9f;"/><path d="M51,36h2a1,1,0,0,0,0-2H51a1,1,0,0,0,0,2Z" style="fill:#8d6c9f;"/><path d="M51,32h2a1,1,0,0,0,0-2H51a1,1,0,0,0,0,2Z" style="fill:#8d6c9f;"/><path d="M23,54a1,1,0,0,0-1,1v2a1,1,0,0,0,2,0V55A1,1,0,0,0,23,54Z" style="fill:#8d6c9f;"/><path d="M23,44a1,1,0,0,0-1,1v6a1,1,0,0,0,2,0V45A1,1,0,0,0,23,44Z" style="fill:#8d6c9f;"/><path d="M31,48a1,1,0,0,0-1,1v8a1,1,0,0,0,2,0V49A1,1,0,0,0,31,48Z" style="fill:#8d6c9f;"/><path d="M39,44a1,1,0,0,0-1,1V57a1,1,0,0,0,2,0V45A1,1,0,0,0,39,44Z" style="fill:#8d6c9f;"/><path d="M23,16a1,1,0,0,0-1,1v6a1,1,0,0,0,2,0V17A1,1,0,0,0,23,16Z" style="fill:#8d6c9f;"/><path d="M39,16a1,1,0,0,0-1,1v6a1,1,0,0,0,2,0V17A1,1,0,0,0,39,16Z" style="fill:#8d6c9f;"/><path d="M31,20a1,1,0,0,0,1-1V17a1,1,0,0,0-2,0v2A1,1,0,0,0,31,20Z" style="fill:#8d6c9f;"/><path d="M63,62H60V28h1a1,1,0,0,0,0-2H52V24a2,2,0,0,0-2-2H46V12h1a1,1,0,0,0,0-2H34V6.06a1,1,0,0,0-2,0V10H30V1.06a1,1,0,0,0-2,0V10H15a1,1,0,0,0,0,2h1V32H5a3,3,0,0,0-1,5.82V62H1a1,1,0,0,0,0,2H63a1,1,0,0,0,0-2ZM5,34H16v2H5a1,1,0,0,1,0-2Zm1,4H16V62H14V58a2,2,0,0,0-2-2H10a2,2,0,0,0-2,2v4H6Zm4,20h2v4H10Zm8,4V12H44V62Zm28,0V24h4v4h8V40H48a1,1,0,0,0,0,2H58V62Z" style="fill:#8d6c9f;"/></svg>
