<?xml version="1.0" encoding="iso-8859-1"?>
<!-- Generator: Adobe Illustrator 21.1.0, SVG Export Plug-In . SVG Version: 6.00 Build 0)  -->
<svg xmlns="http://www.w3.org/2000/svg" xmlns:xlink="http://www.w3.org/1999/xlink" version="1.1" id="Layer_1" x="0px" y="0px" viewBox="0 0 64 64" style="enable-background:new 0 0 64 64;" xml:space="preserve">
<g>
	<path style="fill:#CED8ED;" d="M61,7v44H3V7c0-0.53,0.1-1.04,0.3-1.5C3.89,4.03,5.32,3,7,3h50c1.68,0,3.11,1.03,3.7,2.5   C60.9,5.96,61,6.47,61,7z"/>
	<path style="fill:#B5C4E0;" d="M61,51H3v-5c0-3.314,2.686-6,6-6h46c3.314,0,6,2.686,6,6V51z"/>
	<path style="fill:#7E8189;" d="M51,43H13c-1.657,0-3-1.343-3-3v0c0-1.657,1.343-3,3-3h38c1.657,0,3,1.343,3,3v0   C54,41.657,52.657,43,51,43z"/>
	<path style="fill:#72CAAF;" d="M52,10.95h2c0.552,0,1,0.448,1,1v2c0,0.552-0.448,1-1,1h-2c-0.552,0-1-0.448-1-1v-2   C51,11.398,51.448,10.95,52,10.95z"/>
	<path style="fill:#ED7899;" d="M52,26.95h2c0.552,0,1,0.448,1,1v2c0,0.552-0.448,1-1,1h-2c-0.552,0-1-0.448-1-1v-2   C51,27.398,51.448,26.95,52,26.95z"/>
	<path style="fill:#FADB6F;" d="M52,18.95h2c0.552,0,1,0.448,1,1v2c0,0.552-0.448,1-1,1h-2c-0.552,0-1-0.448-1-1v-2   C51,19.398,51.448,18.95,52,18.95z"/>
	<path style="fill:#72CAAF;" d="M10,10.95h2c0.552,0,1,0.448,1,1v2c0,0.552-0.448,1-1,1h-2c-0.552,0-1-0.448-1-1v-2   C9,11.398,9.448,10.95,10,10.95z"/>
	<path style="fill:#ED7899;" d="M10,26.95h2c0.552,0,1,0.448,1,1v2c0,0.552-0.448,1-1,1h-2c-0.552,0-1-0.448-1-1v-2   C9,27.398,9.448,26.95,10,26.95z"/>
	<path style="fill:#FADB6F;" d="M10,18.95h2c0.552,0,1,0.448,1,1v2c0,0.552-0.448,1-1,1h-2c-0.552,0-1-0.448-1-1v-2   C9,19.398,9.448,18.95,10,18.95z"/>
	<path style="fill:#B5C4E0;" d="M61,55H3c-1.105,0-2-0.895-2-2l0,0c0-1.105,0.895-2,2-2h58c1.105,0,2,0.895,2,2l0,0   C63,54.105,62.105,55,61,55z"/>
	<path style="fill:#72CAAF;" d="M47,37v24c0,1.1-0.9,2-2,2H19c-1.1,0-2-0.9-2-2V37H47z"/>
	<g>
		<path style="fill:#BBDEF9;" d="M42,40.19c0,4.42-4.48,8-10,8s-10-3.58-10-8c0-1.14,0.3-2.22,0.83-3.19h18.34    c0.1,0.17,0.19,0.35,0.26,0.54c0.11,0.23,0.2,0.46,0.26,0.7C41.9,38.86,42,39.52,42,40.19z"/>
		<g>
			<path style="fill:#DEF0FF;" d="M32.92,37l-8.88,7.03c-0.86-1.12-1.37-2.43-1.37-3.84c0-1.08,0.38-2.17,1.03-3.19H32.92z"/>
			<path style="fill:#DEF0FF;" d="M39.81,37l-12.2,9.66c-0.74-0.31-1.41-0.69-2.02-1.13L36.37,37H39.81z"/>
			<path style="fill:#DEF0FF;" d="M29.249,47.177l12.417-9.827c0.084,0.244-0.641,1.416-0.641,1.416l-10.843,8.581     C29.865,47.303,29.554,47.247,29.249,47.177z"/>
		</g>
	</g>
	<rect x="17" y="11" style="fill:#BBDEF9;" width="30" height="20"/>
	<path style="fill:#5DBC9D;" d="M47,63H17v-3c0-1.657,1.343-3,3-3h24c1.657,0,3,1.343,3,3V63z"/>
	<circle style="fill:#FADB6F;" cx="32" cy="56" r="3"/>
	<path style="fill:#DAE2EF;" d="M60.7,5.5C60.11,6.97,58.68,8,57,8H7C5.32,8,3.89,6.97,3.3,5.5C3.89,4.03,5.32,3,7,3h50   C58.68,3,60.11,4.03,60.7,5.5z"/>
	<polygon style="fill:#E3F2FF;" points="47,16.27 47,29.27 45.27,31 45,31.27 32,31.27 32.27,31  "/>
	<polygon style="fill:#E3F2FF;" points="47,11 47,12.57 28.57,31 28.22,31.35 23,31.35 43.35,11  "/>
	<polygon style="fill:#E3F2FF;" points="38.86,11 18.86,31 17,31 17,29.61 35.61,11  "/>
	<polygon style="fill:#FFF8F8;" points="23.5,15 24.74,17.26 27,18.5 24.74,19.74 23.5,22 22.26,19.74 20,18.5 22.26,17.26  "/>
	<polygon style="fill:#FFF8F8;" points="39.42,14.16 40.27,15.73 41.84,16.58 40.27,17.44 39.42,19 38.56,17.44 37,16.58    38.56,15.73  "/>
	<polygon style="fill:#FFF8F8;" points="33.65,24.7 34.23,25.77 35.3,26.35 34.23,26.93 33.65,28 33.06,26.93 32,26.35 33.06,25.77     "/>
	<g>
		<path style="fill:#8D6C9F;" d="M62,50.185V7c0-2.757-2.243-5-5-5H7C4.243,2,2,4.243,2,7v43.185C0.84,50.601,0,51.702,0,53    c0,1.65,1.35,3,3,3h13v5c0,1.65,1.35,3,3,3h26c1.65,0,3-1.35,3-3v-5h13c1.65,0,3-1.35,3-3C64,51.702,63.16,50.601,62,50.185z     M16,54H3c-0.55,0-1-0.45-1-1s0.45-1,1-1h13V54z M16,42h-3c-1.103,0-2-0.897-2-2s0.897-2,2-2h3V42z M46,61c0,0.55-0.45,1-1,1H19    c-0.55,0-1-0.45-1-1V38h4.258C22.093,38.653,22,39.321,22,40v0h-1c-0.553,0-1,0.448-1,1s0.447,1,1,1h1.258    c1.015,4.002,4.993,7,9.742,7s8.728-2.998,9.742-7H43c0.553,0,1-0.448,1-1s-0.447-1-1-1h-1v0c0-0.68-0.093-1.347-0.257-2H43h3V61z     M24,40c0-0.683,0.117-1.353,0.338-2h15.328C39.886,38.646,40,39.316,40,40c0,3.86-3.589,7-8,7S24,43.86,24,40z M43,36h-2h-0.672    c-0.006,0-0.012,0-0.019,0H13c-2.206,0-4,1.794-4,4s1.794,4,4,4h3v6H4V7c0-1.654,1.346-3,3-3h50c1.654,0,3,1.346,3,3v43H48v-6h3    c2.206,0,4-1.794,4-4s-1.794-4-4-4H43z M48,42v-4h3c1.103,0,2,0.897,2,2s-0.897,2-2,2H48z M61,54H48v-2h13c0.55,0,1,0.45,1,1    S61.55,54,61,54z"/>
		<path style="fill:#8D6C9F;" d="M23,45h-2c-0.553,0-1,0.448-1,1s0.447,1,1,1h2c0.553,0,1-0.448,1-1S23.553,45,23,45z"/>
		<path style="fill:#8D6C9F;" d="M23,50h-2c-0.553,0-1,0.448-1,1s0.447,1,1,1h2c0.553,0,1-0.448,1-1S23.553,50,23,50z"/>
		<path style="fill:#8D6C9F;" d="M43,45h-2c-0.553,0-1,0.448-1,1s0.447,1,1,1h2c0.553,0,1-0.448,1-1S43.553,45,43,45z"/>
		<path style="fill:#8D6C9F;" d="M43,50h-2c-0.553,0-1,0.448-1,1s0.447,1,1,1h2c0.553,0,1-0.448,1-1S43.553,50,43,50z"/>
		<path style="fill:#8D6C9F;" d="M43,55c-0.553,0-1,0.448-1,1v3c0,0.552,0.447,1,1,1s1-0.448,1-1v-3C44,55.448,43.553,55,43,55z"/>
		<path style="fill:#8D6C9F;" d="M21,55c-0.553,0-1,0.448-1,1v3c0,0.552,0.447,1,1,1s1-0.448,1-1v-3C22,55.448,21.553,55,21,55z"/>
		<path style="fill:#8D6C9F;" d="M32,52c-2.206,0-4,1.794-4,4s1.794,4,4,4s4-1.794,4-4S34.206,52,32,52z M32,58.334    c-1.287,0-2.334-1.047-2.334-2.334s1.047-2.334,2.334-2.334s2.334,1.047,2.334,2.334S33.287,58.334,32,58.334z"/>
		<path style="fill:#8D6C9F;" d="M12,10h-2c-1.103,0-2,0.897-2,2v2c0,1.103,0.897,2,2,2h2c1.103,0,2-0.897,2-2v-2    C14,10.897,13.103,10,12,10z M10,14v-2h2l0.001,2H10z"/>
		<path style="fill:#8D6C9F;" d="M12,18h-2c-1.103,0-2,0.897-2,2v2c0,1.103,0.897,2,2,2h2c1.103,0,2-0.897,2-2v-2    C14,18.897,13.103,18,12,18z M10,22v-2h2l0.001,2H10z"/>
		<path style="fill:#8D6C9F;" d="M12,26h-2c-1.103,0-2,0.897-2,2v2c0,1.103,0.897,2,2,2h2c1.103,0,2-0.897,2-2v-2    C14,26.897,13.103,26,12,26z M10,30v-2h2l0.001,2H10z"/>
		<path style="fill:#8D6C9F;" d="M52,16h2c1.103,0,2-0.897,2-2v-2c0-1.103-0.897-2-2-2h-2c-1.103,0-2,0.897-2,2v2    C50,15.103,50.897,16,52,16z M52,12h2l0.001,2H52V12z"/>
		<path style="fill:#8D6C9F;" d="M52,24h2c1.103,0,2-0.897,2-2v-2c0-1.103-0.897-2-2-2h-2c-1.103,0-2,0.897-2,2v2    C50,23.103,50.897,24,52,24z M52,20h2l0.001,2H52V20z"/>
		<path style="fill:#8D6C9F;" d="M54,32c1.103,0,2-0.897,2-2v-2c0-1.103-0.897-2-2-2h-2c-1.103,0-2,0.897-2,2v2c0,1.103,0.897,2,2,2    H54z M52,28h2l0.001,2H52V28z"/>
		<path style="fill:#8D6C9F;" d="M46,10H18c-1.103,0-2,0.897-2,2v18c0,1.103,0.897,2,2,2h28c1.103,0,2-0.897,2-2V12    C48,10.897,47.103,10,46,10z M18,30V12h28l0.001,18H18z"/>
	</g>
</g>
</svg>
