<?xml version="1.0" encoding="iso-8859-1"?>
<!-- Generator: Adobe Illustrator 21.1.0, SVG Export Plug-In . SVG Version: 6.00 Build 0)  -->
<svg xmlns="http://www.w3.org/2000/svg" xmlns:xlink="http://www.w3.org/1999/xlink" version="1.1" id="Layer_1" x="0px" y="0px" viewBox="0 0 64 64" style="enable-background:new 0 0 64 64;" xml:space="preserve">
<g>
	<path style="fill:#C2CDE7;" d="M61,51H3c-1.105,0-2-0.895-2-2V15c0-1.105,0.895-2,2-2h58c1.105,0,2,0.895,2,2v34   C63,50.105,62.105,51,61,51z"/>
	<rect x="1" y="45" style="fill:#CFD9ED;" width="62" height="3"/>
	<rect x="1" y="17" style="fill:#C5E4FA;" width="62" height="28"/>
	<polygon style="fill:#E3F2FF;" points="62,17 57.857,17 29.857,45 45.929,45 62,28.928  "/>
	<polygon style="fill:#E3F2FF;" points="47.143,17 19.143,45 25.571,45 53.571,17  "/>
	<polygon style="fill:#E3F2FF;" points="38.5,17 10.5,45 14.857,45 42.857,17  "/>
	<polygon style="fill:#FFF8F8;" points="9.502,19.996 10.74,22.26 13.004,23.498 10.74,24.736 9.502,27 8.264,24.736 6,23.498    8.264,22.26  "/>
	<polygon style="fill:#FFF8F8;" points="53.419,19.162 54.274,20.726 55.838,21.581 54.274,22.436 53.419,24 52.564,22.436    51,21.581 52.564,20.726  "/>
	<polygon style="fill:#FFF8F8;" points="42.648,37.704 43.231,38.769 44.296,39.352 43.231,39.935 42.648,41 42.065,39.935    41,39.352 42.065,38.769  "/>
</g>
<rect x="11.5" y="9.5" transform="matrix(-1.836970e-16 1 -1 -1.836970e-16 56.5 -7.5)" style="fill:#72CAAF;" width="41" height="30"/>
<path style="fill:#97E0BB;" d="M42,40.621V6.666C42,4.641,43.641,3,45.666,3h0C46.955,3,48,4.045,48,5.334v38.044  C48,44.274,47.274,45,46.379,45h0C43.961,45,42,43.039,42,40.621z"/>
<circle style="fill:#FADB6F;" cx="32" cy="12" r="3"/>
<g>
	<path style="fill:#BBDEF9;" d="M23.01,30.19c0,0.91,0.21,1.77,0.6,2.57c0.11,0.23,0.23,0.45,0.38,0.67   c0.25,0.41,0.56,0.8,0.91,1.16c0.48,0.5,1.04,0.95,1.67,1.32c1.51,0.93,3.39,1.47,5.43,1.47c0.58,0,1.14-0.04,1.69-0.13   c0.32-0.04,0.62-0.1,0.92-0.18c0.57-0.13,1.11-0.31,1.62-0.54c0.73-0.3,1.4-0.7,1.99-1.15c0.59-0.45,1.1-0.97,1.52-1.53   c0.79-1.07,1.25-2.32,1.25-3.66c0-0.17-0.01-0.34-0.02-0.51v-0.01c-0.17-1.89-1.26-3.58-2.91-4.78c-0.57-0.42-1.2-0.78-1.89-1.07   c-0.69-0.29-1.43-0.51-2.21-0.64c-0.54-0.1-1.11-0.16-1.69-0.17C32.18,23,32.09,23,32,23c-0.22,0-0.44,0.01-0.65,0.02   c-1.46,0.08-2.82,0.45-4,1.03c-0.7,0.33-1.34,0.74-1.9,1.22c-0.56,0.48-1.04,1.02-1.42,1.6c-0.27,0.41-0.49,0.85-0.66,1.3   c-0.09,0.24-0.16,0.49-0.22,0.74C23.06,29.33,23.01,29.75,23.01,30.19z"/>
	<g>
		<path style="fill:#DEF0FF;" d="M29.4,35.84c1.07,0.8,2.32,1.25,3.65,1.25c3.79,0,7.58-2.85,7.92-7.41v-0.01    c-0.17-1.89-1.26-3.58-2.91-4.78L29.4,35.84z"/>
		<path style="fill:#DEF0FF;" d="M24.9,34.59c0.48,0.5,1.04,0.95,1.67,1.32l9.6-12.09c-0.69-0.29-1.43-0.51-2.21-0.64L24.9,34.59z"/>
		<path style="fill:#DEF0FF;" d="M23.61,32.76c0.11,0.23,0.23,0.45,0.38,0.67l8.28-10.42C32.18,23,32.09,23,32,23    c-0.22,0-0.44,0.01-0.65,0.02L23.61,32.76z"/>
	</g>
</g>
<polygon style="fill:#ACB7D0;" points="45,59 19,59 22,55 42,55 "/>
<rect x="27" y="51" style="fill:#A0AECB;" width="10" height="4"/>
<g>
	<path style="fill:#8D6C9F;" d="M61,12H48V5c0-1.65-1.35-3-3-3H19c-1.65,0-3,1.35-3,3v7H3c-1.65,0-3,1.35-3,3v34c0,1.65,1.35,3,3,3   h23v2h-2.343c-1.335,0-2.591,0.52-3.535,1.464l-2.829,2.829c-0.286,0.286-0.372,0.716-0.217,1.09C17.231,59.756,17.596,60,18,60h28   c0.404,0,0.769-0.244,0.924-0.617c0.155-0.374,0.069-0.804-0.217-1.09l-2.829-2.829C42.934,54.52,41.679,54,40.343,54H38v-2h23   c1.65,0,3-1.35,3-3V15C64,13.35,62.65,12,61,12z M2,15c0-0.55,0.45-1,1-1h13v2H2V15z M40.343,56c0.79,0,1.562,0.32,2.121,0.878   L43.586,58H20.414l1.122-1.122C22.094,56.32,22.867,56,23.657,56H26h12H40.343z M36,54h-8v-2h8V54z M61,50H38H26H3   c-0.55,0-1-0.45-1-1v-3h51.083c0.552,0,1-0.448,1-1s-0.448-1-1-1H2V18h14v26c0,0.55,0.45,1,1,1s1-0.45,1-1V18v-2v-2v-2V5   c0-0.55,0.45-1,1-1h26c0.55,0,1,0.45,1,1v7v2v2v2v26c0,0.55,0.45,1,1,1s1-0.45,1-1V18h3c0.55,0,1-0.45,1-1s-0.45-1-1-1h-3v-2h13   c0.55,0,1,0.45,1,1v29h-5c-0.552,0-1,0.448-1,1s0.448,1,1,1h5v3C62,49.55,61.55,50,61,50z"/>
	<path style="fill:#8D6C9F;" d="M60,17c0-0.552-0.448-1-1-1h-4c-0.552,0-1,0.448-1,1s0.448,1,1,1h4C59.552,18,60,17.552,60,17z"/>
	<path style="fill:#8D6C9F;" d="M23,37h-2c-0.552,0-1,0.448-1,1s0.448,1,1,1h2c0.552,0,1-0.448,1-1S23.552,37,23,37z"/>
	<path style="fill:#8D6C9F;" d="M21,23h2c0.552,0,1-0.448,1-1s-0.448-1-1-1h-2c-0.552,0-1,0.448-1,1S20.448,23,21,23z"/>
	<path style="fill:#8D6C9F;" d="M21,18h2c0.552,0,1-0.448,1-1s-0.448-1-1-1h-2c-0.552,0-1,0.448-1,1S20.448,18,21,18z"/>
	<path style="fill:#8D6C9F;" d="M43,37h-2c-0.552,0-1,0.448-1,1s0.448,1,1,1h2c0.552,0,1-0.448,1-1S43.552,37,43,37z"/>
	<path style="fill:#8D6C9F;" d="M23,42h-2c-0.552,0-1,0.448-1,1s0.448,1,1,1h2c0.552,0,1-0.448,1-1S23.552,42,23,42z"/>
	<path style="fill:#8D6C9F;" d="M43,42h-2c-0.552,0-1,0.448-1,1s0.448,1,1,1h2c0.552,0,1-0.448,1-1S43.552,42,43,42z"/>
	<path style="fill:#8D6C9F;" d="M44,27c0-0.552-0.448-1-1-1h-2c-0.109,0-0.208,0.03-0.306,0.062C38.973,23.64,35.724,22,32,22   s-6.973,1.64-8.694,4.062C23.208,26.03,23.109,26,23,26h-2c-0.552,0-1,0.448-1,1s0.448,1,1,1h1.329C22.122,28.641,22,29.308,22,30   c0,0.682,0.121,1.351,0.33,2H21c-0.552,0-1,0.448-1,1s0.448,1,1,1h2c0.105,0,0.201-0.03,0.296-0.06   c0.518,0.736,1.181,1.409,1.976,1.987h0C27.113,37.264,29.502,38,32,38c3.724,0,6.973-1.64,8.694-4.062   C40.792,33.97,40.891,34,41,34h2c0.552,0,1-0.448,1-1s-0.448-1-1-1h-1.329C41.878,31.359,42,30.692,42,30s-0.122-1.359-0.329-2H43   C43.552,28,44,27.552,44,27z M32,36c-2.079,0-4.051-0.601-5.553-1.691h0C24.869,33.163,24,31.632,24,30c0-3.309,3.589-6,8-6   s8,2.691,8,6S36.411,36,32,36z"/>
	<path style="fill:#8D6C9F;" d="M43,21h-2c-0.552,0-1,0.448-1,1s0.448,1,1,1h2c0.552,0,1-0.448,1-1S43.552,21,43,21z"/>
	<path style="fill:#8D6C9F;" d="M43,16h-2c-0.552,0-1,0.448-1,1s0.448,1,1,1h2c0.552,0,1-0.448,1-1S43.552,16,43,16z"/>
	<path style="fill:#8D6C9F;" d="M42,13c0.552,0,1-0.448,1-1V7c0-0.552-0.448-1-1-1s-1,0.448-1,1v5C41,12.552,41.448,13,42,13z"/>
	<path style="fill:#8D6C9F;" d="M22,13c0.552,0,1-0.448,1-1V7c0-0.552-0.448-1-1-1s-1,0.448-1,1v5C21,12.552,21.448,13,22,13z"/>
	<path style="fill:#8D6C9F;" d="M32,16c2.206,0,4-1.794,4-4s-1.794-4-4-4s-4,1.794-4,4S29.794,16,32,16z M32,10c1.103,0,2,0.897,2,2   s-0.897,2-2,2s-2-0.897-2-2S30.897,10,32,10z"/>
</g>
</svg>
